<svg width="16" height="17" viewBox="0 0 16 17" fill="none" xmlns="http://www.w3.org/2000/svg">
<path fill-rule="evenodd" clip-rule="evenodd" d="M1.29966 2.46616C1.66223 2.10359 2.15398 1.8999 2.66673 1.8999C3.17948 1.8999 3.67123 2.10359 4.0338 2.46616C4.39638 2.82873 4.60006 3.32049 4.60007 3.83324V13.1666C4.60007 13.3611 4.67733 13.5476 4.81485 13.6851C4.95238 13.8227 5.13891 13.8999 5.3334 13.8999C5.52789 13.8999 5.71442 13.8227 5.85194 13.6851C5.98947 13.5476 6.06673 13.3611 6.06673 13.1666V11.8333C6.06673 11.5019 6.33536 11.2333 6.66673 11.2333H14.6667C14.9981 11.2333 15.2667 11.5019 15.2667 11.8333V13.1666C15.2667 13.6793 15.063 14.1711 14.7005 14.5337C14.3379 14.8962 13.8462 15.0999 13.3334 15.0999H5.3334C4.82065 15.0999 4.3289 14.8962 3.96633 14.5337C3.60375 14.1711 3.40007 13.6793 3.40006 13.1666V6.43324H1.3334C1.00203 6.43324 0.733398 6.16461 0.733398 5.83324V3.83324C0.733398 3.32049 0.937088 2.82873 1.29966 2.46616ZM3.40006 5.23324V3.83324C3.40006 3.63875 3.3228 3.45222 3.18528 3.31469C3.04775 3.17717 2.86122 3.0999 2.66673 3.0999C2.47224 3.0999 2.28571 3.17717 2.14819 3.31469C2.01066 3.45222 1.9334 3.63875 1.9334 3.83324V5.23324H3.40006ZM7.12225 13.8999H13.3334C13.5279 13.8999 13.7144 13.8227 13.8519 13.6851C13.9895 13.5476 14.0667 13.3611 14.0667 13.1666V12.4333H7.26673V13.1666C7.26673 13.4206 7.21676 13.6694 7.12225 13.8999Z" fill="#EA4A35"/>
<path fill-rule="evenodd" clip-rule="evenodd" d="M2.06689 2.4999C2.06689 2.16853 2.33552 1.8999 2.66689 1.8999H11.3336C11.8464 1.8999 12.3381 2.10359 12.7007 2.46616C13.0632 2.82873 13.2669 3.32049 13.2669 3.83324V11.8333C13.2669 12.1646 12.9983 12.4333 12.6669 12.4333C12.3356 12.4333 12.0669 12.1646 12.0669 11.8333V3.83324C12.0669 3.63875 11.9897 3.45222 11.8521 3.31469C11.7146 3.17717 11.5281 3.0999 11.3336 3.0999H2.66689C2.33552 3.0999 2.06689 2.83128 2.06689 2.4999Z" fill="#EA4A35"/>
<path fill-rule="evenodd" clip-rule="evenodd" d="M6.7009 5.52351C6.76304 5.4898 6.83875 5.4925 6.89831 5.53054L10.5112 7.83824C10.5666 7.87363 10.6001 7.93457 10.6001 8.00001C10.6001 8.06544 10.5666 8.12638 10.5112 8.16176L6.89831 10.4695C6.83875 10.5075 6.76304 10.5102 6.7009 10.4765C6.63875 10.4428 6.6001 10.378 6.6001 10.3077V5.6923C6.6001 5.62196 6.63875 5.55722 6.7009 5.52351ZM6.98719 6.04455V9.95544L10.0486 8.00001L6.98719 6.04455Z" fill="#EA4A35"/>
<path fill-rule="evenodd" clip-rule="evenodd" d="M6.56987 5.28189C6.71991 5.2005 6.90253 5.20696 7.04644 5.29888L10.6593 7.60657C10.7934 7.6922 10.8752 7.84028 10.8752 8.0001C10.8752 8.15991 10.7934 8.30799 10.6593 8.39362L7.04644 10.7013C6.90253 10.7932 6.71991 10.7997 6.56987 10.7183C6.41963 10.6368 6.3252 10.4796 6.3252 10.3078V5.6924C6.3252 5.52056 6.41963 5.36339 6.56987 5.28189ZM7.26229 6.54661V9.45358L9.53786 8.0001L7.26229 6.54661Z" fill="#EA4A35"/>
</svg>
