<svg width="16" height="16" viewBox="0 0 16 16" fill="none" xmlns="http://www.w3.org/2000/svg">
<path fill-rule="evenodd" clip-rule="evenodd" d="M1.33203 8.0026C1.33203 4.3206 4.3167 1.33594 7.9987 1.33594C11.6807 1.33594 14.6654 4.3206 14.6654 8.0026C14.6654 11.6846 11.6807 14.6693 7.9987 14.6693C4.3167 14.6693 1.33203 11.6846 1.33203 8.0026ZM7.9987 5.33594C7.9987 5.15913 7.92846 4.98956 7.80344 4.86453C7.67841 4.73951 7.50884 4.66927 7.33203 4.66927C7.15522 4.66927 6.98565 4.73951 6.86063 4.86453C6.7356 4.98956 6.66536 5.15913 6.66536 5.33594V8.66927C6.66536 8.84608 6.7356 9.01565 6.86063 9.14067C6.98565 9.2657 7.15522 9.33594 7.33203 9.33594H10.6654C10.8422 9.33594 11.0117 9.2657 11.1368 9.14067C11.2618 9.01565 11.332 8.84608 11.332 8.66927C11.332 8.49246 11.2618 8.32289 11.1368 8.19787C11.0117 8.07284 10.8422 8.0026 10.6654 8.0026H7.9987V5.33594Z" fill="black"/>
</svg>
