<svg width="24" height="24" viewBox="0 0 24 24" fill="none" xmlns="http://www.w3.org/2000/svg">
<path d="M9.52381 8.88888H8.38095V12.7778L11.6419 14.7533L12.1905 13.8122L9.52381 12.1944V8.88888ZM9.14286 5C7.32423 5 5.58009 5.7375 4.29412 7.05025C3.00816 8.363 2.28571 10.1435 2.28571 12H0L3.01714 15.1344L6.09524 12H3.80952C3.80952 10.556 4.37143 9.17121 5.37162 8.15019C6.37182 7.12916 7.72837 6.55555 9.14286 6.55555C10.5573 6.55555 11.9139 7.12916 12.9141 8.15019C13.9143 9.17121 14.4762 10.556 14.4762 12C14.4762 13.4439 13.9143 14.8287 12.9141 15.8498C11.9139 16.8708 10.5573 17.4444 9.14286 17.4444C7.67238 17.4444 6.33905 16.83 5.37905 15.8422L4.29714 16.9466C4.93075 17.6003 5.68559 18.1185 6.51758 18.4711C7.34957 18.8236 8.24204 19.0034 9.14286 19C10.9615 19 12.7056 18.2625 13.9916 16.9497C15.2776 15.637 16 13.8565 16 12C16 10.1435 15.2776 8.363 13.9916 7.05025C12.7056 5.7375 10.9615 5 9.14286 5Z" fill="#717684"/>
<path d="M20.5086 14.7321C20.7312 15.0893 21.2687 15.0893 21.4913 14.7321L23.9174 10.8362C24.1466 10.4682 23.8716 10 23.4261 10H18.5738C18.1285 10 17.8535 10.4682 18.0824 10.8362L20.5086 14.7321Z" fill="#717684"/>
</svg>
