<svg width="16" height="17" viewBox="0 0 16 17" fill="none" xmlns="http://www.w3.org/2000/svg">
<path d="M2.80007 10.5669C2.27954 10.0756 1.87899 9.47124 1.62939 8.80045C1.37979 8.12965 1.28783 7.41043 1.36062 6.69841C1.43341 5.98639 1.66901 5.30065 2.04918 4.69424C2.42935 4.08782 2.94391 3.57698 3.55307 3.20122C4.16223 2.82546 4.84965 2.59485 5.56218 2.52722C6.27471 2.4596 6.99325 2.55678 7.66222 2.81124C8.33119 3.0657 8.93266 3.47063 9.42012 3.9947C9.90758 4.51877 10.268 5.14794 10.4734 5.83356H11.6667C12.3026 5.84213 12.9194 6.05257 13.4279 6.4345C13.9364 6.81643 14.3104 7.35008 14.4959 7.95841C14.6814 8.56674 14.6687 9.21827 14.4598 9.81894C14.2508 10.4196 13.8564 10.9383 13.3334 11.3002M10.4667 12.7669L9.86673 12.5669M6.1334 11.1002L5.5334 10.9002M7.06673 14.3002L7.26673 13.7002M8.7334 9.96689L8.9334 9.36689M9.06673 14.3002L8.80007 13.6336M7.20007 10.0336L6.9334 9.36689M5.5334 12.9002L6.20007 12.6336M9.80007 11.0336L10.4667 10.7669M10.0001 11.8336C10.0001 12.9381 9.10464 13.8336 8.00007 13.8336C6.8955 13.8336 6.00007 12.9381 6.00007 11.8336C6.00007 10.729 6.8955 9.83356 8.00007 9.83356C9.10464 9.83356 10.0001 10.729 10.0001 11.8336Z" stroke="#EA4A35" stroke-width="1.25" stroke-linecap="round" stroke-linejoin="round"/>
</svg>
