<svg width="16" height="17" viewBox="0 0 16 17" fill="none" xmlns="http://www.w3.org/2000/svg">
<path d="M14 3.8335C14 4.93807 11.3137 5.8335 8 5.8335C4.68629 5.8335 2 4.93807 2 3.8335M14 3.8335C14 2.72893 11.3137 1.8335 8 1.8335C4.68629 1.8335 2 2.72893 2 3.8335M14 3.8335V13.1668C14 13.6973 13.3679 14.206 12.2426 14.581C11.1174 14.9561 9.5913 15.1668 8 15.1668C6.4087 15.1668 4.88258 14.9561 3.75736 14.581C2.63214 14.206 2 13.6973 2 13.1668V3.8335M2 8.50016C2 9.0306 2.63214 9.5393 3.75736 9.91438C4.88258 10.2894 6.4087 10.5002 8 10.5002C9.5913 10.5002 11.1174 10.2894 12.2426 9.91438C13.3679 9.5393 14 9.0306 14 8.50016" stroke="#EA4A35" stroke-width="1.25" stroke-linecap="round" stroke-linejoin="round"/>
</svg>
