<svg width="16" height="17" viewBox="0 0 16 17" fill="none" xmlns="http://www.w3.org/2000/svg">
<g clip-path="url(#clip0_21_10324)">
<mask id="mask0_21_10324" style="mask-type:luminance" maskUnits="userSpaceOnUse" x="0" y="0" width="16" height="17">
<path d="M16 0.5H0V16.5H16V0.5Z" fill="white"/>
</mask>
<g mask="url(#mask0_21_10324)">
<path d="M8.6346 7.90251C9.91283 7.90251 11.1915 7.90251 12.4706 7.90251C12.9546 7.90251 13.258 8.04658 13.26 8.56044C13.2618 9.2146 13.2622 9.86987 13.2613 10.5262C13.2612 10.5322 13.2623 10.5382 13.2646 10.5437C13.2668 10.5493 13.2701 10.5543 13.2743 10.5586C13.2785 10.5629 13.2835 10.5662 13.289 10.5686C13.2946 10.5709 13.3005 10.5721 13.3065 10.5721C13.7353 10.5738 14.166 10.5752 14.5984 10.576C15.0167 10.5767 15.2729 10.8064 15.2723 11.2386C15.2705 12.473 15.2696 13.7072 15.2696 14.9412C15.2696 15.4989 15.0983 15.7691 14.5294 15.7691C13.3051 15.7704 12.0807 15.7702 10.856 15.7684C10.3368 15.7677 10.0866 15.6064 10.0792 15.0793C10.0607 13.8064 10.0573 12.5332 10.0693 11.2599C10.0739 10.8064 10.2851 10.5727 10.7339 10.5754C11.1672 10.5776 11.6002 10.5767 12.0331 10.5727C12.0552 10.5723 12.0663 10.561 12.0663 10.5389V9.14733C12.0663 9.11413 12.0497 9.09753 12.0165 9.09753H3.96672C3.95791 9.09753 3.94947 9.10103 3.94324 9.10726C3.93702 9.11348 3.93352 9.12192 3.93352 9.13073V10.5409C3.93352 10.5497 3.93695 10.5581 3.94305 10.5643C3.94915 10.5705 3.95742 10.574 3.96605 10.574C4.38652 10.5754 4.80611 10.5754 5.22481 10.574C5.67825 10.5734 5.93385 10.7765 5.93585 11.2512C5.94248 12.884 5.9416 14.1584 5.93319 15.0746C5.92921 15.5599 5.67626 15.7684 5.21153 15.7691C3.98154 15.77 2.75156 15.7702 1.52157 15.7697C0.982484 15.7691 0.730866 15.5732 0.730866 15.0348C0.72998 13.753 0.729759 12.471 0.730202 11.1888C0.730202 10.7374 1.05352 10.582 1.47377 10.5721C1.88096 10.5623 2.2855 10.5636 2.68738 10.576C2.69284 10.5762 2.69828 10.5753 2.70339 10.5734C2.70849 10.5714 2.71316 10.5685 2.71711 10.5647C2.72107 10.5609 2.72423 10.5564 2.72642 10.5514C2.72861 10.5464 2.72978 10.541 2.72987 10.5355C2.74005 9.92033 2.74248 9.30666 2.73717 8.69454C2.73253 8.20791 2.88389 7.90384 3.39842 7.90384C4.72356 7.90207 6.05048 7.90185 7.37916 7.90318C7.38533 7.90318 7.39124 7.90073 7.3956 7.89637C7.39995 7.89201 7.4024 7.8861 7.4024 7.87994V6.49571C7.4024 6.48039 7.39639 6.4657 7.38568 6.45486C7.37497 6.44403 7.36045 6.43795 7.34531 6.43795C6.89739 6.43706 6.4871 6.4333 6.11443 6.42666C5.68024 6.41936 5.41136 6.25405 5.41136 5.80326C5.41092 4.533 5.4107 3.26229 5.4107 1.99114C5.4107 1.46334 5.59858 1.23297 6.1224 1.23164C7.3484 1.22943 8.57419 1.22943 9.79975 1.23164C10.2797 1.2323 10.5885 1.36907 10.5885 1.88359C10.5889 3.16271 10.5891 4.44182 10.5891 5.72093C10.5891 6.15911 10.4119 6.41537 9.96771 6.43064C9.52555 6.44614 9.08273 6.44259 8.63925 6.42002C8.61136 6.41869 8.59742 6.43197 8.59742 6.45986V7.86533C8.59742 7.89012 8.60981 7.90251 8.6346 7.90251ZM9.40445 2.47559C9.40445 2.47132 9.40362 2.46709 9.40199 2.46314C9.40036 2.45918 9.39797 2.45559 9.39496 2.45257C9.39194 2.44954 9.38836 2.44714 9.38441 2.4455C9.38047 2.44386 9.37624 2.44301 9.37197 2.443L6.62475 2.43821C6.62048 2.4382 6.61625 2.43903 6.6123 2.44066C6.60835 2.44229 6.60476 2.44468 6.60173 2.44769C6.59871 2.45071 6.5963 2.45429 6.59466 2.45824C6.59302 2.46218 6.59217 2.46641 6.59216 2.47068L6.58741 5.19533C6.5874 5.1996 6.58824 5.20383 6.58986 5.20778C6.59149 5.21173 6.59388 5.21532 6.5969 5.21835C6.59991 5.22137 6.6035 5.22378 6.60744 5.22542C6.61139 5.22706 6.61562 5.22791 6.61989 5.22792L9.3671 5.23271C9.37137 5.23272 9.37561 5.23188 9.37956 5.23026C9.38351 5.22863 9.3871 5.22624 9.39012 5.22322C9.39315 5.22021 9.39555 5.21662 9.39719 5.21268C9.39884 5.20873 9.39968 5.2045 9.39969 5.20023L9.40445 2.47559ZM1.94116 14.5389C1.94116 14.5441 1.94325 14.5492 1.94699 14.5529C1.95072 14.5567 1.95579 14.5588 1.96107 14.5588L4.71028 14.5628C4.71557 14.5628 4.72063 14.5607 4.72437 14.5569C4.7281 14.5532 4.7302 14.5481 4.7302 14.5428V11.7896C4.7302 11.7844 4.7281 11.7793 4.72437 11.7756C4.72063 11.7718 4.71557 11.7697 4.71028 11.7697H1.96107C1.95579 11.7697 1.95072 11.7718 1.94699 11.7756C1.94325 11.7793 1.94116 11.7844 1.94116 11.7896V14.5389ZM14.0607 11.8102C14.0607 11.7995 14.0564 11.7892 14.0488 11.7816C14.0412 11.774 14.0309 11.7697 14.0202 11.7697H11.3101C11.2994 11.7697 11.2891 11.774 11.2815 11.7816C11.2739 11.7892 11.2696 11.7995 11.2696 11.8102V14.5322C11.2696 14.543 11.2739 14.5533 11.2815 14.5609C11.2891 14.5685 11.2994 14.5727 11.3101 14.5727H14.0202C14.0309 14.5727 14.0412 14.5685 14.0488 14.5609C14.0564 14.5533 14.0607 14.543 14.0607 14.5322V11.8102Z" fill="#EA4A35"/>
</g>
</g>
<defs>
<clipPath id="clip0_21_10324">
<rect width="16" height="16" fill="white" transform="translate(0 0.5)"/>
</clipPath>
</defs>
</svg>
