<svg width="24" height="28" viewBox="0 0 24 28" fill="none" xmlns="http://www.w3.org/2000/svg">
<path d="M16.6421 21.5776L16.6108 25.1447L12.7789 27.5032C12.3015 27.797 11.7026 27.8099 11.2131 27.5369L7.3487 25.3816L7.31192 21.7479L11.2654 23.9565C11.7551 24.2301 12.3546 24.2175 12.8324 23.9233L16.6421 21.5776ZM5.9598 3.62174L5.92805 7.2709L3.7893 8.5969C3.33389 8.87925 3.05684 9.37701 3.05684 9.91287V18.2894C3.05684 18.83 3.33876 19.3314 3.80061 19.6123L5.80999 20.8344L5.77863 24.4266L0.749612 21.3678C0.28777 21.0869 0.00585938 20.5855 0.00585938 20.0449V8.17473C0.00585938 7.63883 0.282939 7.14107 0.738394 6.85872L5.9598 3.62174ZM17.9702 3.8749L23.2481 7.00945C23.7179 7.28843 24.0059 7.79437 24.0059 8.34076V20.0447C24.0059 20.602 23.7065 21.1162 23.2219 21.3913L18.1758 24.2559L18.1402 20.7268L20.1704 19.5744C20.655 19.2993 20.9545 18.7851 20.9545 18.2278V10.1173C20.9545 9.57095 20.6666 9.06509 20.1969 8.78607L18.0066 7.48496L17.9702 3.8749ZM12.7875 0.522962L16.8024 3.18122L16.7714 6.75141L12.8213 4.13255C12.3232 3.80232 11.6796 3.78823 11.1675 4.09628L7.15825 6.50832L7.12186 2.90135L11.1344 0.48724C11.6462 0.179332 12.2894 0.193233 12.7875 0.522962Z" fill="#1D2331"/>
<path d="M9.83563 17.551L10.125 16.9484H14.1173L14.9006 18.8701H18.0953L13.5183 8.03143H10.6461L6.06904 18.8701H7.73643C8.63227 18.8701 9.44862 18.3572 9.83563 17.551ZM13.44 14.6121H11.0344L12.2372 11.4868L13.44 14.6121Z" fill="#EA4A35"/>
<path d="M7.85207 18.8701H6.06904L10.6461 8.03143H13.5183L10.0331 17.3589C9.69357 18.2676 8.82395 18.8701 7.85207 18.8701Z" fill="#C31A03"/>
</svg>
