<svg width="24" height="24" viewBox="0 0 24 24" fill="none" xmlns="http://www.w3.org/2000/svg">
<path d="M16.053 18.6217L16.0256 21.7385L12.6775 23.7992C12.2604 24.056 11.7371 24.0672 11.3093 23.8287L7.93276 21.9455L7.90063 18.7705L11.355 20.7003C11.7829 20.9394 12.3067 20.9283 12.7242 20.6712L16.053 18.6217ZM6.71918 2.93245L6.69145 6.12096L4.82269 7.27957C4.42476 7.52628 4.18268 7.96121 4.18268 8.42942V15.7485C4.18268 16.2209 4.42902 16.659 4.83256 16.9045L6.58829 17.9722L6.56089 21.111L2.16671 18.4383C1.76317 18.1929 1.51685 17.7548 1.51685 17.2824V6.9107C1.51685 6.44245 1.75895 6.00752 2.15691 5.76081L6.71918 2.93245ZM17.2135 3.15366L21.8251 5.89252C22.2356 6.13628 22.4872 6.57835 22.4872 7.05576V17.2823C22.4872 17.7692 22.2256 18.2185 21.8022 18.4589L17.3931 20.9619L17.362 17.8782L19.1359 16.8713C19.5594 16.631 19.821 16.1816 19.821 15.6947V8.60804C19.821 8.13066 19.5694 7.68866 19.1591 7.44486L17.2453 6.308L17.2135 3.15366ZM12.685 0.224852L16.193 2.54754L16.166 5.66705L12.7145 3.37878C12.2793 3.09024 11.7169 3.07793 11.2695 3.34709L7.76635 5.45464L7.73455 2.303L11.2406 0.19364C11.6878 -0.0753998 12.2498 -0.0632539 12.685 0.224852Z" fill="#1D2331"/>
<path d="M10.1058 15.1033L10.3586 14.5768H13.8469L14.5313 16.256H17.3228L13.3235 6.78548H10.8139L6.81464 16.256H8.27154C9.0543 16.256 9.7676 15.8077 10.1058 15.1033ZM13.2551 12.5354H11.1532L12.2042 9.80464L13.2551 12.5354Z" fill="#EA4A35"/>
<path d="M8.37259 16.256H6.81464L10.8139 6.78548H13.3235L10.2783 14.9355C9.98162 15.7295 9.22178 16.256 8.37259 16.256Z" fill="#C31A03"/>
</svg>
