<svg width="24" height="24" viewBox="0 0 24 24" fill="none" xmlns="http://www.w3.org/2000/svg">
<path d="M6.95889 6.50737L7.39372 7.62837C7.88756 8.9019 8.8795 9.93367 10.1534 10.3845C11.2246 10.7635 12.165 10.6515 12.9618 10.2984C16.7255 8.62992 16.7592 3.11556 13.0265 1.37663C12.6727 1.21166 12.2784 1.06874 11.839 0.953896C6.91908 -0.333855 3.1895 3.81098 3.1895 3.81098C-3.9525 12.5838 3.13084 20.0391 3.13084 20.0391C-2.74119 10.8236 6.95889 6.50737 6.95889 6.50737Z" fill="#717684"/>
<path d="M19.3636 10.4848L18.1754 10.3007C16.8254 10.092 15.436 10.4351 14.4085 11.3129C13.5445 12.051 13.1712 12.9213 13.0788 13.7878C12.6418 17.8814 17.401 20.6681 20.7729 18.3049C21.0925 18.0809 21.4136 17.8107 21.7329 17.4878C25.3081 13.871 23.5834 8.56851 23.5834 8.56851C19.5566 -2.00299 9.55859 0.403986 9.55859 0.403986C20.4753 -0.0738544 19.3636 10.4848 19.3636 10.4848Z" fill="#717684"/>
<path d="M9.67136 19.1125L10.4475 18.1938C11.3292 17.1507 11.7598 15.7854 11.5457 14.4515C11.3658 13.3294 10.8176 12.5575 10.1261 12.0271C6.85942 9.52161 2.00174 12.132 2.26199 16.2416C2.28688 16.6313 2.35016 17.0458 2.45967 17.4867C3.68449 22.4226 9.1089 23.7125 9.1089 23.7125C20.2301 25.7828 23.3844 15.9945 23.3844 15.9945C18.105 25.562 9.67136 19.1125 9.67136 19.1125Z" fill="#717684"/>
</svg> 