<svg width="16" height="16" viewBox="0 0 16 16" fill="none" xmlns="http://www.w3.org/2000/svg">
<path fill-rule="evenodd" clip-rule="evenodd" d="M10.0013 13.3359C10.1712 13.3361 10.3347 13.4012 10.4582 13.5178C10.5818 13.6345 10.6561 13.7939 10.6661 13.9635C10.676 14.1332 10.6209 14.3002 10.5118 14.4305C10.4027 14.5608 10.248 14.6445 10.0793 14.6646L10.0013 14.6693H6.0013C5.83138 14.6691 5.66795 14.604 5.54439 14.4874C5.42083 14.3707 5.34648 14.2113 5.33652 14.0417C5.32656 13.872 5.38175 13.705 5.49081 13.5747C5.59987 13.4444 5.75457 13.3607 5.9233 13.3406L6.0013 13.3359H10.0013ZM10.0013 1.33594C10.1646 1.33596 10.3222 1.39591 10.4442 1.50441C10.5662 1.61292 10.6442 1.76244 10.6633 1.9246L10.668 2.0026V4.0026H12.0013C12.3377 4.0025 12.6617 4.12954 12.9083 4.35827C13.155 4.587 13.3061 4.9005 13.3313 5.23594L13.3346 5.33594V8.66927C13.3347 9.70419 12.9336 10.6988 12.2157 11.4443C11.4977 12.1897 10.5188 12.6278 9.48464 12.6666L9.33464 12.6693H6.66797C5.63305 12.6693 4.63839 12.2682 3.89299 11.5503C3.14758 10.8324 2.70945 9.85346 2.67064 8.81927L2.66797 8.66927V5.33594C2.66786 4.99955 2.79491 4.67556 3.02363 4.42891C3.25236 4.18225 3.56587 4.03117 3.9013 4.00594L4.0013 4.0026H5.33464V2.0026C5.33482 1.83268 5.39989 1.66925 5.51653 1.54569C5.63318 1.42213 5.7926 1.34778 5.96223 1.33782C6.13186 1.32786 6.29889 1.38305 6.42919 1.49211C6.55949 1.60117 6.64323 1.75587 6.6633 1.9246L6.66797 2.0026V4.0026H9.33464V2.0026C9.33464 1.82579 9.40487 1.65622 9.5299 1.5312C9.65492 1.40618 9.82449 1.33594 10.0013 1.33594ZM12.0013 5.33594H4.0013V8.66927C4.0013 9.35343 4.26426 10.0114 4.73578 10.5071C5.20731 11.0029 5.85133 11.2984 6.53464 11.3326L6.66797 11.3359H9.33464C10.0188 11.3359 10.6768 11.073 11.1725 10.6015C11.6682 10.1299 11.9638 9.48591 11.998 8.8026L12.0013 8.66927V5.33594Z" fill="black"/>
</svg>
