<svg width="16" height="17" viewBox="0 0 16 17" fill="none" xmlns="http://www.w3.org/2000/svg">
<path d="M3.91113 6.19385L7.99988 8.50009L12.0763 6.19396" stroke="#EA4A35" stroke-width="1.25" stroke-linecap="round" stroke-linejoin="round"/>
<path d="M8 13.1166V8.5Z" fill="#EA4A35"/>
<path d="M8 13.1166V8.5" stroke="#EA4A35" stroke-width="1.25" stroke-linecap="round" stroke-linejoin="round"/>
<path d="M14 5.83359C13.9998 5.59978 13.938 5.37013 13.821 5.1677C13.704 4.96527 13.5358 4.79717 13.3333 4.68026L8.66667 2.01359C8.46397 1.89657 8.23405 1.83496 8 1.83496C7.76595 1.83496 7.53603 1.89657 7.33333 2.01359L2.66667 4.68026C2.46418 4.79717 2.29599 4.96527 2.17897 5.1677C2.06196 5.37013 2.00024 5.59978 2 5.83359V11.1669C2.00024 11.4007 2.06196 11.6304 2.17897 11.8328C2.29599 12.0353 2.46418 12.2034 2.66667 12.3203L7.33333 14.9869C7.53603 15.104 7.76595 15.1656 8 15.1656C8.23405 15.1656 8.46397 15.104 8.66667 14.9869L13.3333 12.3203C13.5358 12.2034 13.704 12.0353 13.821 11.8328C13.938 11.6304 13.9998 11.4007 14 11.1669V5.83359Z" stroke="#EA4A35" stroke-width="1.25" stroke-linecap="round" stroke-linejoin="round"/>
</svg>
