<svg width="16" height="16" viewBox="0 0 16 16" fill="none" xmlns="http://www.w3.org/2000/svg">
<path d="M8 11.3335V14.6668" stroke="#EA4A35" stroke-width="1.25" stroke-linecap="round" stroke-linejoin="round"/>
<path d="M6.62516 7.17383V7.1735V4.66683C6.62516 4.32426 6.48908 3.99572 6.24684 3.75348C6.00461 3.51125 5.67607 3.37516 5.3335 3.37516C5.14563 3.37516 4.96547 3.30054 4.83263 3.1677C4.69979 3.03486 4.62516 2.85469 4.62516 2.66683C4.62516 2.47897 4.69979 2.2988 4.83263 2.16596C4.96547 2.03312 5.14563 1.9585 5.3335 1.9585H10.6668C10.8547 1.9585 11.0349 2.03312 11.1677 2.16596C11.3005 2.2988 11.3752 2.47897 11.3752 2.66683C11.3752 2.85469 11.3005 3.03486 11.1677 3.1677C11.0349 3.30054 10.8547 3.37516 10.6668 3.37516C10.3243 3.37516 9.99572 3.51125 9.75348 3.75348C9.51125 3.99572 9.37516 4.32426 9.37516 4.66683V7.1735V7.17383C9.37536 7.53816 9.47718 7.89522 9.66919 8.20485C9.86078 8.51381 10.1346 8.76333 10.4599 8.92548L11.6448 9.52459L11.6448 9.5246L11.6487 9.52654C11.7667 9.58518 11.866 9.67558 11.9355 9.78757C12.0049 9.89957 12.0418 10.0287 12.0418 10.1605V10.6668C12.0418 10.6779 12.0374 10.6885 12.0296 10.6963C12.0218 10.7041 12.0112 10.7085 12.0002 10.7085H4.00016C3.98911 10.7085 3.97851 10.7041 3.9707 10.6963C3.96289 10.6885 3.9585 10.6779 3.9585 10.6668L3.9585 10.1605C3.9585 10.1605 3.9585 10.1604 3.9585 10.1604C3.95858 10.0287 3.99541 9.89954 4.06485 9.78757C4.13429 9.67558 4.23361 9.58518 4.35162 9.52654L4.35163 9.52655L4.35551 9.52459L5.54039 8.92549C5.86574 8.76334 6.13955 8.51381 6.33114 8.20485C6.52314 7.89522 6.62497 7.53816 6.62516 7.17383Z" fill="#EA4A35" stroke="#EA4A35" stroke-width="1.25" stroke-linecap="round" stroke-linejoin="round"/>
</svg>
