<svg width="16" height="17" viewBox="0 0 16 17" fill="none" xmlns="http://www.w3.org/2000/svg">
<path d="M13.3332 9.16664C13.3332 12.5 10.9998 14.1666 8.2265 15.1333C8.08128 15.1825 7.92353 15.1802 7.77984 15.1266C4.99984 14.1666 2.6665 12.5 2.6665 9.16664V4.49997C2.6665 4.32316 2.73674 4.15359 2.86177 4.02857C2.98679 3.90355 3.15636 3.83331 3.33317 3.83331C4.6665 3.83331 6.33317 3.03331 7.49317 2.01997C7.63441 1.89931 7.81407 1.83301 7.99984 1.83301C8.1856 1.83301 8.36527 1.89931 8.5065 2.01997C9.67317 3.03997 11.3332 3.83331 12.6665 3.83331C12.8433 3.83331 13.0129 3.90355 13.1379 4.02857C13.2629 4.15359 13.3332 4.32316 13.3332 4.49997V9.16664Z" stroke="#EA4A35" stroke-width="1.25" stroke-linecap="round" stroke-linejoin="round"/>
<path d="M6 8.49984L7.33333 9.83317L10 7.1665" stroke="#EA4A35" stroke-width="1.25" stroke-linecap="round" stroke-linejoin="round"/>
</svg>
