<svg width="16" height="16" viewBox="0 0 16 16" fill="none" xmlns="http://www.w3.org/2000/svg">
<path fill-rule="evenodd" clip-rule="evenodd" d="M8 9.83594C7.17157 9.83594 6.5 10.5075 6.5 11.3359C6.5 12.1644 7.17157 12.8359 8 12.8359C8.82843 12.8359 9.5 12.1644 9.5 11.3359C9.5 10.5075 8.82843 9.83594 8 9.83594ZM5.5 11.3359C5.5 9.95523 6.61929 8.83594 8 8.83594C9.38071 8.83594 10.5 9.95523 10.5 11.3359C10.5 12.7166 9.38071 13.8359 8 13.8359C6.61929 13.8359 5.5 12.7166 5.5 11.3359Z" fill="black"/>
<path fill-rule="evenodd" clip-rule="evenodd" d="M7.48396 2.78004C6.88667 2.55284 6.24512 2.46607 5.60894 2.52645C4.97275 2.58683 4.35898 2.79273 3.81509 3.12823C3.27119 3.46373 2.81176 3.91984 2.47232 4.46129C2.13288 5.00273 1.92253 5.61499 1.85754 6.25072C1.79255 6.88645 1.87466 7.52862 2.09752 8.12754C2.32037 8.72647 2.67801 9.26611 3.14276 9.70473C3.34359 9.89426 3.35274 10.2107 3.16321 10.4115C2.97367 10.6124 2.65722 10.6215 2.4564 10.432C1.8801 9.8881 1.43664 9.21895 1.16029 8.47628C0.883952 7.73361 0.782138 6.93733 0.862728 6.14902C0.943318 5.36071 1.20415 4.60151 1.62506 3.93012C2.04596 3.25873 2.61566 2.69316 3.29008 2.27713C3.9645 1.86111 4.72558 1.60579 5.51445 1.53093C6.30333 1.45606 7.09885 1.56365 7.83949 1.84537C8.58014 2.1271 9.24605 2.57541 9.78574 3.15563C10.2398 3.64376 10.5942 4.21425 10.8307 4.83502H11.673C12.4149 4.84502 13.1344 5.09058 13.7277 5.53617C14.321 5.98175 14.7573 6.60434 14.9737 7.31406C15.19 8.02378 15.1753 8.7839 14.9315 9.48468C14.6877 10.1855 14.2276 10.7906 13.6174 11.2128C13.3904 11.37 13.0789 11.3133 12.9218 11.0862C12.7646 10.8591 12.8213 10.5477 13.0484 10.3905C13.4842 10.089 13.8129 9.65668 13.987 9.15613C14.1611 8.65557 14.1717 8.11263 14.0171 7.60568C13.8626 7.09874 13.5509 6.65403 13.1272 6.33576C12.7042 6.01813 12.1915 5.84283 11.6627 5.83502H10.4729C10.252 5.83502 10.0573 5.69011 9.99395 5.47854C9.81053 4.86638 9.48876 4.30462 9.05352 3.8367C8.61829 3.36877 8.08126 3.00723 7.48396 2.78004Z" fill="black"/>
<path fill-rule="evenodd" clip-rule="evenodd" d="M9.39298 11.9123C9.48031 11.6504 9.76347 11.5088 10.0254 11.5961L10.6254 11.7961C10.8874 11.8834 11.029 12.1666 10.9417 12.4286C10.8543 12.6905 10.5712 12.8321 10.3092 12.7448L9.70921 12.5448C9.44724 12.4575 9.30566 12.1743 9.39298 11.9123Z" fill="black"/>
<path fill-rule="evenodd" clip-rule="evenodd" d="M5.05704 10.2405C5.14437 9.97849 5.42753 9.83691 5.6895 9.92423L6.2895 10.1242C6.55147 10.2116 6.69305 10.4947 6.60573 10.7567C6.5184 11.0187 6.23524 11.1602 5.97327 11.0729L5.37327 10.8729C5.1113 10.7856 4.96972 10.5024 5.05704 10.2405Z" fill="black"/>
<path fill-rule="evenodd" clip-rule="evenodd" d="M7.42465 12.7289C7.68663 12.8162 7.82821 13.0994 7.74088 13.3614L7.54088 13.9614C7.45356 14.2233 7.1704 14.3649 6.90843 14.2776C6.64646 14.1903 6.50488 13.9071 6.5922 13.6451L6.7922 13.0451C6.87952 12.7832 7.16268 12.6416 7.42465 12.7289Z" fill="black"/>
<path fill-rule="evenodd" clip-rule="evenodd" d="M9.09262 8.39298C9.3546 8.48031 9.49618 8.76347 9.40885 9.02544L9.20885 9.62544C9.12153 9.88741 8.83837 10.029 8.5764 9.94166C8.31443 9.85434 8.17285 9.57118 8.26017 9.30921L8.46017 8.70921C8.54749 8.44724 8.83065 8.30566 9.09262 8.39298Z" fill="black"/>
<path fill-rule="evenodd" clip-rule="evenodd" d="M8.61522 12.6687C8.87161 12.5662 9.1626 12.6909 9.26515 12.9472L9.53182 13.6139C9.63438 13.8703 9.50967 14.1613 9.25328 14.2639C8.99689 14.3664 8.7059 14.2417 8.60334 13.9853L8.33668 13.3186C8.23412 13.0622 8.35883 12.7713 8.61522 12.6687Z" fill="black"/>
<path fill-rule="evenodd" clip-rule="evenodd" d="M6.74803 8.40308C7.00442 8.30053 7.29541 8.42523 7.39797 8.68162L7.66463 9.34829C7.76719 9.60468 7.64248 9.89567 7.38609 9.99823C7.1297 10.1008 6.83871 9.97607 6.73616 9.71968L6.46949 9.05302C6.36693 8.79662 6.49164 8.50564 6.74803 8.40308Z" fill="black"/>
<path fill-rule="evenodd" clip-rule="evenodd" d="M6.66229 11.9473C6.76484 12.2036 6.64014 12.4946 6.38374 12.5972L5.71708 12.8639C5.46069 12.9664 5.1697 12.8417 5.06714 12.5853C4.96459 12.3289 5.0893 12.0379 5.34569 11.9354L6.01235 11.6687C6.26875 11.5662 6.55973 11.6909 6.66229 11.9473Z" fill="black"/>
<path fill-rule="evenodd" clip-rule="evenodd" d="M10.9318 10.0801C11.0344 10.3365 10.9097 10.6274 10.6533 10.73L9.98661 10.9967C9.73022 11.0992 9.43923 10.9745 9.33668 10.7181C9.23412 10.4617 9.35883 10.1707 9.61522 10.0682L10.2819 9.80152C10.5383 9.69896 10.8293 9.82367 10.9318 10.0801Z" fill="black"/>
</svg>
