<svg width="16" height="16" viewBox="0 0 16 16" fill="none" xmlns="http://www.w3.org/2000/svg">
<path fill-rule="evenodd" clip-rule="evenodd" d="M2.781 2.95015C2.53437 3.14452 2.5 3.27866 2.5 3.33594C2.5 3.39321 2.53437 3.52736 2.781 3.72172C3.02199 3.91165 3.4017 4.10455 3.91547 4.27581C4.9378 4.61658 6.38193 4.83594 8 4.83594C9.61807 4.83594 11.0622 4.61658 12.0845 4.27581C12.5983 4.10455 12.978 3.91165 13.219 3.72172C13.4656 3.52736 13.5 3.39321 13.5 3.33594C13.5 3.27866 13.4656 3.14452 13.219 2.95015C12.978 2.76023 12.5983 2.56732 12.0845 2.39607C11.0622 2.05529 9.61807 1.83594 8 1.83594C6.38193 1.83594 4.9378 2.05529 3.91547 2.39607C3.4017 2.56732 3.02199 2.76023 2.781 2.95015ZM3.59925 1.44738C4.74849 1.0643 6.30436 0.835938 8 0.835938C9.69564 0.835938 11.2515 1.0643 12.4008 1.44738C12.9728 1.63805 13.4717 1.87611 13.838 2.16474C14.1986 2.44893 14.5 2.84093 14.5 3.33594C14.5 3.83095 14.1986 4.22295 13.838 4.50713C13.4717 4.79576 12.9728 5.03382 12.4008 5.22449C11.2515 5.60758 9.69564 5.83594 8 5.83594C6.30436 5.83594 4.74849 5.60758 3.59925 5.22449C3.02724 5.03382 2.52826 4.79576 2.16202 4.50713C1.80142 4.22295 1.5 3.83095 1.5 3.33594C1.5 2.84093 1.80142 2.44893 2.16202 2.16474C2.52826 1.87611 3.02724 1.63805 3.59925 1.44738Z" fill="black"/>
<path fill-rule="evenodd" clip-rule="evenodd" d="M2.00129 7.5C2.27743 7.50071 2.50071 7.72515 2.5 8.00129C2.4998 8.0775 2.57883 8.31473 3.13651 8.61476C3.65874 8.89572 4.44231 9.13918 5.41492 9.30003C5.68736 9.34509 5.87169 9.60247 5.82664 9.87491C5.78158 10.1474 5.5242 10.3317 5.25175 10.2866C4.22079 10.1161 3.31848 9.8482 2.66273 9.4954C2.04244 9.16169 1.49828 8.66804 1.5 7.99871C1.50072 7.72257 1.72515 7.49929 2.00129 7.5Z" fill="black"/>
<path fill-rule="evenodd" clip-rule="evenodd" d="M14 2.83594C14.2761 2.83594 14.5 3.0598 14.5 3.33594L14.5 7.57031C14.5 7.84646 14.2761 8.07031 14 8.07031C13.7239 8.07031 13.5 7.84646 13.5 7.57031L13.5 3.33594C13.5 3.0598 13.7239 2.83594 14 2.83594Z" fill="black"/>
<path fill-rule="evenodd" clip-rule="evenodd" d="M2 2.83594C2.27614 2.83594 2.5 3.0598 2.5 3.33594V12.6693C2.49996 12.7118 2.51861 12.8057 2.66076 12.9481C2.80449 13.0921 3.04448 13.2534 3.40066 13.4119C4.11206 13.7286 5.14763 13.9731 6.36192 14.0916C6.63676 14.1185 6.8378 14.363 6.81097 14.6379C6.78413 14.9127 6.53958 15.1137 6.26474 15.0869C4.98894 14.9623 3.83791 14.7012 2.994 14.3255C2.57253 14.1379 2.21365 13.9157 1.95302 13.6546C1.69088 13.392 1.49971 13.0589 1.5 12.6691C1.5 12.6692 1.5 12.669 1.5 12.6691V3.33594C1.5 3.0598 1.72386 2.83594 2 2.83594Z" fill="black"/>
<path fill-rule="evenodd" clip-rule="evenodd" d="M9.31442 9.31051C9.50968 9.11525 9.82626 9.11525 10.0215 9.31051L11.3549 10.6438C11.5501 10.8391 11.5501 11.1557 11.3549 11.3509L10.0215 12.6843C9.82626 12.8795 9.50968 12.8795 9.31442 12.6843C9.11915 12.489 9.11915 12.1724 9.31442 11.9772L10.2942 10.9974L9.31442 10.0176C9.11915 9.82235 9.11915 9.50577 9.31442 9.31051Z" fill="black"/>
<path fill-rule="evenodd" clip-rule="evenodd" d="M11.832 13.6641C11.832 13.3879 12.0559 13.1641 12.332 13.1641H14.9987C15.2748 13.1641 15.4987 13.3879 15.4987 13.6641C15.4987 13.9402 15.2748 14.1641 14.9987 14.1641H12.332C12.0559 14.1641 11.832 13.9402 11.832 13.6641Z" fill="black"/>
</svg>
