<svg width="16" height="16" viewBox="0 0 16 16" fill="none" xmlns="http://www.w3.org/2000/svg">
<path fill-rule="evenodd" clip-rule="evenodd" d="M2.781 2.95015C2.53437 3.14452 2.5 3.27866 2.5 3.33594C2.5 3.39321 2.53437 3.52736 2.781 3.72172C3.02199 3.91165 3.4017 4.10455 3.91547 4.27581C4.9378 4.61658 6.38193 4.83594 8 4.83594C9.61807 4.83594 11.0622 4.61658 12.0845 4.27581C12.5983 4.10455 12.978 3.91165 13.219 3.72172C13.4656 3.52736 13.5 3.39321 13.5 3.33594C13.5 3.27866 13.4656 3.14452 13.219 2.95015C12.978 2.76023 12.5983 2.56732 12.0845 2.39607C11.0622 2.05529 9.61807 1.83594 8 1.83594C6.38193 1.83594 4.9378 2.05529 3.91547 2.39607C3.4017 2.56732 3.02199 2.76023 2.781 2.95015ZM3.59925 1.44738C4.74849 1.0643 6.30436 0.835938 8 0.835938C9.69564 0.835938 11.2515 1.0643 12.4008 1.44738C12.9728 1.63805 13.4717 1.87611 13.838 2.16474C14.1986 2.44893 14.5 2.84093 14.5 3.33594C14.5 3.83095 14.1986 4.22295 13.838 4.50713C13.4717 4.79576 12.9728 5.03382 12.4008 5.22449C11.2515 5.60758 9.69564 5.83594 8 5.83594C6.30436 5.83594 4.74849 5.60758 3.59925 5.22449C3.02724 5.03382 2.52826 4.79576 2.16202 4.50713C1.80142 4.22295 1.5 3.83095 1.5 3.33594C1.5 2.84093 1.80142 2.44893 2.16202 2.16474C2.52826 1.87611 3.02724 1.63805 3.59925 1.44738Z" fill="black"/>
<path fill-rule="evenodd" clip-rule="evenodd" d="M2 2.83594C2.27614 2.83594 2.5 3.0598 2.5 3.33594V12.6693C2.5 12.7208 2.53037 12.8521 2.77019 13.0451C3.0054 13.2344 3.38374 13.4319 3.91547 13.6091C4.97565 13.9625 6.44529 14.1693 8 14.1693C9.55471 14.1693 11.0244 13.9625 12.0845 13.6091C12.6163 13.4319 12.9946 13.2344 13.2298 13.0451C13.4696 12.8521 13.5 12.7208 13.5 12.6693V3.33594C13.5 3.0598 13.7239 2.83594 14 2.83594C14.2761 2.83594 14.5 3.0598 14.5 3.33594V12.6693C14.5 13.1482 14.2143 13.5364 13.8567 13.8242C13.4946 14.1156 12.9942 14.36 12.4008 14.5578C11.2105 14.9546 9.62789 15.1693 8 15.1693C6.37211 15.1693 4.78951 14.9546 3.59925 14.5578C3.00576 14.36 2.50542 14.1156 2.14325 13.8242C1.7857 13.5364 1.5 13.1482 1.5 12.6693V3.33594C1.5 3.0598 1.72386 2.83594 2 2.83594Z" fill="black"/>
<path fill-rule="evenodd" clip-rule="evenodd" d="M2 7.5C2.27614 7.5 2.5 7.72386 2.5 8C2.5 8.05151 2.53037 8.18284 2.77019 8.37583C3.0054 8.56512 3.38374 8.76263 3.91547 8.93987C4.97565 9.29326 6.44529 9.5 8 9.5C9.55471 9.5 11.0244 9.29326 12.0845 8.93987C12.6163 8.76263 12.9946 8.56512 13.2298 8.37583C13.4696 8.18284 13.5 8.05151 13.5 8C13.5 7.72386 13.7239 7.5 14 7.5C14.2761 7.5 14.5 7.72386 14.5 8C14.5 8.47893 14.2143 8.86717 13.8567 9.1549C13.4946 9.44635 12.9942 9.69073 12.4008 9.88856C11.2105 10.2853 9.62789 10.5 8 10.5C6.37211 10.5 4.78951 10.2853 3.59925 9.88856C3.00576 9.69073 2.50542 9.44635 2.14325 9.1549C1.7857 8.86717 1.5 8.47893 1.5 8C1.5 7.72386 1.72386 7.5 2 7.5Z" fill="black"/>
</svg>
