<svg width="15" height="13" viewBox="0 0 15 13" fill="none" xmlns="http://www.w3.org/2000/svg">
<path fill-rule="evenodd" clip-rule="evenodd" d="M1.16667 1C1.12246 1 1.08007 1.01756 1.04882 1.04882C1.01756 1.08007 1 1.12246 1 1.16667V9.83333C1 9.87754 1.01756 9.91993 1.04882 9.95119C1.08007 9.98244 1.12246 10 1.16667 10H5.16667C5.82971 10 6.46559 10.2634 6.93443 10.7322C7.01857 10.8164 7.0961 10.9059 7.16667 11C7.23724 10.9059 7.31476 10.8164 7.3989 10.7322C7.86774 10.2634 8.50363 10 9.16667 10H13.1667C13.2109 10 13.2533 9.98244 13.2845 9.95119C13.3158 9.91993 13.3333 9.87754 13.3333 9.83333V1.16667C13.3333 1.12246 13.3158 1.08007 13.2845 1.04882C13.2533 1.01756 13.2109 1 13.1667 1H9.83333C9.2587 1 8.7076 1.22827 8.30127 1.6346C7.89494 2.04093 7.66667 2.59203 7.66667 3.16667C7.66667 3.44281 7.44281 3.66667 7.16667 3.66667C6.89052 3.66667 6.66667 3.44281 6.66667 3.16667C6.66667 2.59203 6.43839 2.04093 6.03206 1.6346C5.62574 1.22827 5.07464 1 4.5 1H1.16667ZM7.16667 1.45882C7.04465 1.26829 6.90165 1.08997 6.73917 0.927495C6.14531 0.33363 5.33985 0 4.5 0H1.16667C0.857248 0 0.560501 0.122916 0.341709 0.341709C0.122916 0.560501 0 0.857248 0 1.16667V9.83333C0 10.1428 0.122916 10.4395 0.341709 10.6583C0.560502 10.8771 0.857248 11 1.16667 11H5.16667C5.56449 11 5.94602 11.158 6.22733 11.4393C6.50863 11.7206 6.66667 12.1022 6.66667 12.5C6.66667 12.7761 6.89052 13 7.16667 13C7.44281 13 7.66667 12.7761 7.66667 12.5C7.66667 12.1022 7.8247 11.7206 8.10601 11.4393C8.38731 11.158 8.76884 11 9.16667 11H13.1667C13.4761 11 13.7728 10.8771 13.9916 10.6583C14.2104 10.4395 14.3333 10.1428 14.3333 9.83333V1.16667C14.3333 0.857248 14.2104 0.560502 13.9916 0.341709C13.7728 0.122916 13.4761 0 13.1667 0H9.83333C8.99348 0 8.18803 0.33363 7.59416 0.927495C7.43168 1.08997 7.28868 1.26829 7.16667 1.45882Z" fill="black"/>
<path fill-rule="evenodd" clip-rule="evenodd" d="M7.17052 3.38281C7.42865 3.38281 7.63791 3.5647 7.63791 3.78906V11.3724C7.63791 11.5968 7.42865 11.7786 7.17052 11.7786C6.91238 11.7786 6.70312 11.5968 6.70312 11.3724V3.78906C6.70312 3.5647 6.91238 3.38281 7.17052 3.38281Z" fill="black"/>
<path fill-rule="evenodd" clip-rule="evenodd" d="M9.08594 6.5C9.08594 6.27563 9.2952 6.09375 9.55333 6.09375H10.7478C11.0059 6.09375 11.2152 6.27563 11.2152 6.5C11.2152 6.72437 11.0059 6.90625 10.7478 6.90625H9.55333C9.2952 6.90625 9.08594 6.72437 9.08594 6.5Z" fill="black"/>
<path fill-rule="evenodd" clip-rule="evenodd" d="M9.08594 4.33594C9.08594 4.11157 9.2952 3.92969 9.55333 3.92969H10.7478C11.0059 3.92969 11.2152 4.11157 11.2152 4.33594C11.2152 4.5603 11.0059 4.74219 10.7478 4.74219H9.55333C9.2952 4.74219 9.08594 4.5603 9.08594 4.33594Z" fill="black"/>
<path fill-rule="evenodd" clip-rule="evenodd" d="M3.11719 6.5C3.11719 6.27563 3.32645 6.09375 3.58458 6.09375H4.77902C5.03716 6.09375 5.24641 6.27563 5.24641 6.5C5.24641 6.72437 5.03716 6.90625 4.77902 6.90625H3.58458C3.32645 6.90625 3.11719 6.72437 3.11719 6.5Z" fill="black"/>
<path fill-rule="evenodd" clip-rule="evenodd" d="M3.11719 4.33594C3.11719 4.11157 3.32645 3.92969 3.58458 3.92969H4.77902C5.03716 3.92969 5.24641 4.11157 5.24641 4.33594C5.24641 4.5603 5.03716 4.74219 4.77902 4.74219H3.58458C3.32645 4.74219 3.11719 4.5603 3.11719 4.33594Z" fill="black"/>
</svg>
