<svg width="16" height="16" viewBox="0 0 16 16" fill="none" xmlns="http://www.w3.org/2000/svg">
<path d="M7.99902 15.1669C5.15039 15.1669 2.83203 12.8485 2.83203 9.99989C2.83203 9.16981 3.12988 8.28407 3.60937 7.68641C3.74316 7.52235 3.96484 7.45789 4.16503 7.52821C4.36522 7.59853 4.49901 7.78798 4.49901 7.99989C4.49901 8.64344 5.02245 9.16688 5.66503 9.16688C6.30858 9.16688 6.83202 8.64344 6.83202 7.99989C6.83202 7.37391 6.65331 7.04188 6.40624 6.58192C6.34472 6.46864 6.28124 6.35047 6.21776 6.22352C5.43944 4.66493 5.91405 3.16102 7.66991 1.62391C7.80272 1.50575 7.99022 1.46961 8.16014 1.52625C8.32909 1.58387 8.45409 1.72645 8.48924 1.90223C8.7949 3.42957 9.72459 4.94032 10.9775 5.94227C12.4082 7.08778 13.165 8.4911 13.165 9.99989C13.165 12.8485 10.8477 15.1669 7.99902 15.1669ZM3.9248 9.28895C3.86523 9.52333 3.83203 9.76551 3.83203 9.99989C3.83203 12.2977 5.70117 14.1669 7.99902 14.1669C10.2959 14.1669 12.165 12.2977 12.165 9.99989C12.165 8.80458 11.5381 7.67177 10.3525 6.72352C9.15527 5.76551 8.21582 4.3993 7.73633 2.95204C6.58594 4.21669 6.78223 5.1161 7.11231 5.77626C7.1709 5.89345 7.2295 6.00282 7.28614 6.10829C7.56739 6.62977 7.83204 7.12196 7.83204 7.99989C7.83204 9.1952 6.86036 10.1669 5.66505 10.1669C4.95314 10.1669 4.3203 9.82118 3.9248 9.28895Z" fill="black"/>
</svg>
