<svg width="16" height="16" viewBox="0 0 16 16" fill="none" xmlns="http://www.w3.org/2000/svg">
<path fill-rule="evenodd" clip-rule="evenodd" d="M7.24138 3.00108C7.48012 2.89225 7.73944 2.83594 8.00182 2.83594C8.26425 2.83594 8.52363 2.89228 8.76241 3.00115L14.47 5.60091C14.6771 5.68912 14.8542 5.83536 14.9801 6.02207C15.1077 6.21135 15.177 6.4339 15.1793 6.66217C15.1817 6.89043 15.117 7.11437 14.9934 7.30624C14.8703 7.49729 14.694 7.64818 14.4864 7.74043L8.76265 10.3378C8.76255 10.3378 8.76275 10.3377 8.76265 10.3378C8.52389 10.4466 8.26423 10.5031 8.00182 10.5031C7.73929 10.5031 7.47983 10.4467 7.24099 10.3378L1.53064 7.73378C1.32464 7.64266 1.14938 7.49382 1.02609 7.30522C0.902015 7.11543 0.835938 6.89359 0.835938 6.66684C0.835938 6.44009 0.902015 6.21825 1.02609 6.02846C1.14942 5.8398 1.32475 5.69093 1.53085 5.59981L7.24138 3.00108C7.24152 3.00102 7.24125 3.00114 7.24138 3.00108ZM8.00182 3.83594C7.88249 3.83594 7.76455 3.86156 7.65599 3.91109L1.93576 6.51422C1.90609 6.52722 1.88083 6.54853 1.8631 6.57564C1.84538 6.60276 1.83594 6.63445 1.83594 6.66684C1.83594 6.69924 1.84538 6.73093 1.8631 6.75804C1.88083 6.78515 1.90607 6.80651 1.93574 6.81951L1.94263 6.82253L7.65594 9.42791C7.76451 9.47743 7.88249 9.50308 8.00182 9.50308C8.12115 9.50308 8.23908 9.47745 8.34765 9.42793L14.08 6.82669C14.1098 6.81352 14.1352 6.79192 14.1528 6.76451C14.1705 6.7371 14.1797 6.70511 14.1794 6.6725C14.1791 6.63989 14.1692 6.6081 14.1509 6.58106C14.1327 6.55402 14.1069 6.53292 14.0768 6.52038L14.0619 6.51386L8.34789 3.9112C8.23933 3.86168 8.12115 3.83594 8.00182 3.83594Z" fill="black"/>
<path fill-rule="evenodd" clip-rule="evenodd" d="M14.668 6.16406C14.9441 6.16406 15.168 6.38792 15.168 6.66406V10.6641C15.168 10.9402 14.9441 11.1641 14.668 11.1641C14.3918 11.1641 14.168 10.9402 14.168 10.6641V6.66406C14.168 6.38792 14.3918 6.16406 14.668 6.16406Z" fill="black"/>
<path fill-rule="evenodd" clip-rule="evenodd" d="M4 7.83594C4.27614 7.83594 4.5 8.0598 4.5 8.33594V10.6693C4.5 10.9144 4.70699 11.2922 5.39518 11.6363C6.05998 11.9687 6.99674 12.1693 8 12.1693C9.00326 12.1693 9.94002 11.9687 10.6048 11.6363C11.293 11.2922 11.5 10.9144 11.5 10.6693V8.33594C11.5 8.0598 11.7239 7.83594 12 7.83594C12.2761 7.83594 12.5 8.0598 12.5 8.33594V10.6693C12.5 11.485 11.8641 12.1246 11.052 12.5307C10.2165 12.9484 9.11848 13.1693 8 13.1693C6.88152 13.1693 5.78346 12.9484 4.94797 12.5307C4.13586 12.1246 3.5 11.485 3.5 10.6693V8.33594C3.5 8.0598 3.72386 7.83594 4 7.83594Z" fill="black"/>
</svg>
