<svg width="16" height="16" viewBox="0 0 16 16" fill="none" xmlns="http://www.w3.org/2000/svg">
<path fill-rule="evenodd" clip-rule="evenodd" d="M7.99812 1.50001L8 1.5C9.28558 1.5 10.5423 1.88122 11.6112 2.59545C12.6801 3.30968 13.5132 4.32484 14.0052 5.51256C14.4972 6.70028 14.6259 8.00721 14.3751 9.26809C14.1243 10.529 13.5052 11.6872 12.5962 12.5962C11.6872 13.5052 10.529 14.1243 9.26809 14.3751C8.00721 14.6259 6.70028 14.4972 5.51256 14.0052C4.32484 13.5133 3.30968 12.6801 2.59545 11.6112C1.88122 10.5423 1.5 9.28558 1.5 8C1.5 7.72386 1.72386 7.5 2 7.5C2.27614 7.5 2.5 7.72386 2.5 8C2.5 9.0878 2.82257 10.1512 3.42692 11.0556C4.03127 11.9601 4.89025 12.6651 5.89524 13.0813C6.90023 13.4976 8.0061 13.6065 9.073 13.3943C10.1399 13.1821 11.1199 12.6583 11.8891 11.8891C12.6583 11.1199 13.1821 10.1399 13.3943 9.073C13.6065 8.0061 13.4976 6.90024 13.0813 5.89524C12.6651 4.89025 11.9601 4.03127 11.0556 3.42692C10.1514 2.82275 9.08841 2.50019 8.00094 2.5C6.45432 2.50606 4.96982 3.10913 3.85717 4.18328L2.35355 5.68689C2.15829 5.88215 1.84171 5.88215 1.64645 5.68689C1.45118 5.49163 1.45118 5.17505 1.64645 4.97978L3.1591 3.46713C4.45784 2.2116 6.19173 1.5068 7.99812 1.50001Z" fill="black"/>
<path fill-rule="evenodd" clip-rule="evenodd" d="M2 1.5C2.27614 1.5 2.5 1.72386 2.5 2V4.83333H5.33333C5.60948 4.83333 5.83333 5.05719 5.83333 5.33333C5.83333 5.60948 5.60948 5.83333 5.33333 5.83333H2C1.72386 5.83333 1.5 5.60948 1.5 5.33333V2C1.5 1.72386 1.72386 1.5 2 1.5Z" fill="black"/>
<path fill-rule="evenodd" clip-rule="evenodd" d="M8 4.16406C8.27614 4.16406 8.5 4.38792 8.5 4.66406V7.68838L10.8903 8.88352C11.1373 9.00701 11.2374 9.30735 11.1139 9.55434C10.9904 9.80133 10.69 9.90144 10.4431 9.77794L7.77639 8.44461C7.607 8.35991 7.5 8.18678 7.5 7.9974V4.66406C7.5 4.38792 7.72386 4.16406 8 4.16406Z" fill="black"/>
</svg>
