<svg width="16" height="16" viewBox="0 0 16 16" fill="none" xmlns="http://www.w3.org/2000/svg">
<path d="M8.01269 15.1625C7.87402 15.1625 7.7373 15.1381 7.60742 15.0902C3.95117 13.8275 2.16797 11.723 2.16797 8.66151V3.99452C2.16797 3.35194 2.69141 2.8285 3.33496 2.8285C4.46875 2.8285 6.00781 2.14881 7.16601 1.13807C7.65331 0.725956 8.35156 0.724976 8.833 1.13416C9.99413 2.14978 11.5332 2.8285 12.668 2.8285C13.3115 2.8285 13.8349 3.35194 13.8349 3.99452V8.66151C13.8349 11.7181 12.0547 13.8236 8.39354 15.1C8.26854 15.142 8.14062 15.1625 8.01269 15.1625ZM8.00391 1.82753C7.93848 1.82753 7.87305 1.84999 7.81934 1.89589C6.47559 3.06874 4.71387 3.82851 3.33496 3.82851C3.24316 3.82851 3.16797 3.90273 3.16797 3.99453V8.66152C3.16797 11.2797 4.68652 13.0238 7.94531 14.1488C7.99511 14.1674 8.0332 14.1654 8.06933 14.1547C11.3193 13.0219 12.8349 11.2758 12.8349 8.66152V3.99453C12.8349 3.90273 12.7597 3.82851 12.668 3.82851C11.2871 3.82851 9.52538 3.06777 8.17968 1.89101C8.12988 1.84902 8.06739 1.82753 8.00391 1.82753Z" fill="black"/>
<path d="M7.33301 9.83105C7.2002 9.83105 7.07324 9.77831 6.97949 9.68456L5.64648 8.35058C5.45117 8.15527 5.45117 7.83886 5.64648 7.64355C5.84179 7.44824 6.1582 7.44824 6.35351 7.64355L7.333 8.62403L9.64648 6.31054C9.84179 6.11524 10.1582 6.11524 10.3535 6.31054C10.5488 6.50585 10.5488 6.82226 10.3535 7.01757L7.68652 9.68456C7.59277 9.77831 7.46583 9.83105 7.33301 9.83105Z" fill="black"/>
</svg>
