<svg width="16" height="16" viewBox="0 0 16 16" fill="none" xmlns="http://www.w3.org/2000/svg">
<path d="M13.999 10.833H13.165V3.3335C13.165 2.32227 12.3428 1.5 11.332 1.5H2.66504C1.6543 1.5 0.832031 2.32227 0.832031 3.3335V4.66651C0.832031 5.31006 1.35547 5.8335 1.99902 5.8335H3.49902V12.667C3.49902 13.6777 4.32129 14.5 5.33203 14.5H13.332C14.3428 14.5 15.165 13.6777 15.165 12.667V12C15.165 11.3565 14.6416 10.833 13.999 10.833ZM3.49902 4.8335H1.99902C1.90722 4.8335 1.83203 4.75879 1.83203 4.66651V3.3335C1.83203 2.87403 2.20605 2.5 2.66504 2.5C3.125 2.5 3.49902 2.87402 3.49902 3.3335V4.8335ZM6.16504 12V12.667C6.16504 13.126 5.79102 13.5 5.33203 13.5C4.87304 13.5 4.49902 13.126 4.49902 12.667V3.3335C4.49902 3.0318 4.41888 2.75122 4.2893 2.5H11.332C11.791 2.5 12.165 2.87402 12.165 3.3335V10.833H7.33202C6.68847 10.833 6.16504 11.3565 6.16504 12ZM14.165 12.667C14.165 13.126 13.791 13.5 13.332 13.5H6.96484C7.09277 13.25 7.16504 12.9668 7.16504 12.667V12C7.16504 11.9082 7.24024 11.833 7.33203 11.833H13.999C14.0908 11.833 14.165 11.9082 14.165 12V12.667Z" fill="black"/>
<path d="M7.16993 9.16308C7.09181 9.16308 7.01368 9.15429 6.93555 9.13574C6.67578 9.07324 6.45606 8.91406 6.31641 8.68652C6.21875 8.52539 6.16797 8.3457 6.16797 8.16308V5.16113C6.16992 4.61084 6.61817 4.16406 7.16797 4.16406H7.16992C7.35547 4.16504 7.53515 4.21582 7.69043 4.31152L10.1338 5.81103C10.3613 5.95117 10.5205 6.17089 10.583 6.42968C10.6455 6.69042 10.6035 6.95898 10.4629 7.18652C10.3769 7.32422 10.2666 7.43457 10.1318 7.51562L7.69141 9.01464C7.53223 9.11327 7.35254 9.16308 7.16993 9.16308ZM7.16798 5.16405V8.16307L9.61036 6.66307L7.16798 5.16405Z" fill="black"/>
</svg>
