<svg width="16" height="16" viewBox="0 0 16 16" fill="none" xmlns="http://www.w3.org/2000/svg">
<path fill-rule="evenodd" clip-rule="evenodd" d="M8 10.8359C8.27614 10.8359 8.5 11.0598 8.5 11.3359V14.6693C8.5 14.9454 8.27614 15.1693 8 15.1693C7.72386 15.1693 7.5 14.9454 7.5 14.6693V11.3359C7.5 11.0598 7.72386 10.8359 8 10.8359Z" fill="black"/>
<path fill-rule="evenodd" clip-rule="evenodd" d="M6.9987 7.17647C6.99847 7.61057 6.87714 8.03599 6.64837 8.40492C6.42029 8.77272 6.09442 9.06983 5.70722 9.26305L4.51704 9.86482C4.46151 9.89242 4.41476 9.93494 4.38208 9.98764C4.34942 10.0403 4.33209 10.101 4.33203 10.163V10.3359H11.6654V10.1631C11.6653 10.1011 11.648 10.0403 11.6153 9.98764C11.5826 9.93494 11.5359 9.8924 11.4804 9.8648L11.4741 9.8617L10.2902 9.26304C9.90296 9.06982 9.5771 8.77272 9.34902 8.40492C9.12025 8.03599 8.99893 7.61057 8.9987 7.17647V4.66927C8.9987 4.22724 9.17429 3.80332 9.48685 3.49076C9.79941 3.1782 10.2233 3.0026 10.6654 3.0026C10.7538 3.0026 10.8386 2.96749 10.9011 2.90497C10.9636 2.84246 10.9987 2.75768 10.9987 2.66927C10.9987 2.58087 10.9636 2.49608 10.9011 2.43357C10.8386 2.37106 10.7538 2.33594 10.6654 2.33594H5.33203C5.24363 2.33594 5.15884 2.37106 5.09633 2.43357C5.03382 2.49608 4.9987 2.58087 4.9987 2.66927C4.9987 2.75768 5.03382 2.84246 5.09633 2.90497C5.15884 2.96749 5.24363 3.0026 5.33203 3.0026C5.77406 3.0026 6.19798 3.1782 6.51054 3.49076C6.8231 3.80332 6.9987 4.22724 6.9987 4.66927V7.17647ZM10.7387 8.36927L11.9254 8.96927C12.1475 9.07966 12.3345 9.24982 12.4652 9.46063C12.5959 9.67145 12.6652 9.91455 12.6654 10.1626V10.6693C12.6654 10.8461 12.5951 11.0157 12.4701 11.1407C12.3451 11.2657 12.1755 11.3359 11.9987 11.3359H3.9987C3.82189 11.3359 3.65232 11.2657 3.52729 11.1407C3.40227 11.0157 3.33203 10.8461 3.33203 10.6693V10.1626C3.33216 9.91455 3.40149 9.67145 3.53222 9.46063C3.66295 9.24982 3.84989 9.07966 4.07203 8.96927L5.2587 8.36927C5.48084 8.25889 5.66778 8.08872 5.79851 7.87791C5.92924 7.66709 5.99857 7.42399 5.9987 7.17594V4.66927C5.9987 4.49246 5.92846 4.32289 5.80344 4.19787C5.67841 4.07284 5.50884 4.0026 5.33203 4.0026C4.97841 4.0026 4.63927 3.86213 4.38922 3.61208C4.13917 3.36203 3.9987 3.02289 3.9987 2.66927C3.9987 2.31565 4.13917 1.97651 4.38922 1.72646C4.63927 1.47641 4.97841 1.33594 5.33203 1.33594H10.6654C11.019 1.33594 11.3581 1.47641 11.6082 1.72646C11.8582 1.97651 11.9987 2.31565 11.9987 2.66927C11.9987 3.02289 11.8582 3.36203 11.6082 3.61208C11.3581 3.86213 11.019 4.0026 10.6654 4.0026C10.4886 4.0026 10.319 4.07284 10.194 4.19787C10.0689 4.32289 9.9987 4.49246 9.9987 4.66927V7.17594C9.99883 7.42399 10.0682 7.66709 10.1989 7.87791C10.3296 8.08872 10.5166 8.25889 10.7387 8.36927Z" fill="black"/>
</svg>
