<svg width="16" height="16" viewBox="0 0 16 16" fill="none" xmlns="http://www.w3.org/2000/svg">
<path fill-rule="evenodd" clip-rule="evenodd" d="M8 10.8359C8.27614 10.8359 8.5 11.0598 8.5 11.3359V14.6693C8.5 14.9454 8.27614 15.1693 8 15.1693C7.72386 15.1693 7.5 14.9454 7.5 14.6693V11.3359C7.5 11.0598 7.72386 10.8359 8 10.8359Z" fill="black"/>
<path d="M5.9987 7.17594C5.99857 7.42399 5.92924 7.66709 5.79851 7.87791C5.66778 8.08872 5.48084 8.25889 5.2587 8.36927L4.07203 8.96927C3.84989 9.07966 3.66295 9.24982 3.53222 9.46063C3.40149 9.67145 3.33216 9.91455 3.33203 10.1626V10.6693C3.33203 10.8461 3.40227 11.0157 3.52729 11.1407C3.65232 11.2657 3.82189 11.3359 3.9987 11.3359H11.9987C12.1755 11.3359 12.3451 11.2657 12.4701 11.1407C12.5951 11.0157 12.6654 10.8461 12.6654 10.6693V10.1626C12.6652 9.91455 12.5959 9.67145 12.4652 9.46063C12.3345 9.24982 12.1475 9.07966 11.9254 8.96927L10.7387 8.36927C10.5166 8.25889 10.3296 8.08872 10.1989 7.87791C10.0682 7.66709 9.99883 7.42399 9.9987 7.17594V4.66927C9.9987 4.49246 10.0689 4.32289 10.194 4.19787C10.319 4.07284 10.4886 4.0026 10.6654 4.0026C11.019 4.0026 11.3581 3.86213 11.6082 3.61208C11.8582 3.36203 11.9987 3.02289 11.9987 2.66927C11.9987 2.31565 11.8582 1.97651 11.6082 1.72646C11.3581 1.47641 11.019 1.33594 10.6654 1.33594H5.33203C4.97841 1.33594 4.63927 1.47641 4.38922 1.72646C4.13917 1.97651 3.9987 2.31565 3.9987 2.66927C3.9987 3.02289 4.13917 3.36203 4.38922 3.61208C4.63927 3.86213 4.97841 4.0026 5.33203 4.0026C5.50884 4.0026 5.67841 4.07284 5.80344 4.19787C5.92846 4.32289 5.9987 4.49246 5.9987 4.66927V7.17594Z" fill="black"/>
</svg>
