<svg width="16" height="16" viewBox="0 0 16 16" fill="none" xmlns="http://www.w3.org/2000/svg">
<g clip-path="url(#clip0_5235_69212)">
<path fill-rule="evenodd" clip-rule="evenodd" d="M15.0215 0.982384C15.2168 1.17765 15.2168 1.49423 15.0215 1.68949L13.0215 3.68949C12.8263 3.88475 12.5097 3.88475 12.3144 3.68949C12.1192 3.49423 12.1192 3.17765 12.3144 2.98238L14.3144 0.982384C14.5097 0.787122 14.8263 0.787122 15.0215 0.982384Z" fill="black"/>
<path fill-rule="evenodd" clip-rule="evenodd" d="M3.68558 12.3105C3.88085 12.5058 3.88085 12.8224 3.68558 13.0176L1.68558 15.0176C1.49032 15.2129 1.17374 15.2129 0.978478 15.0176C0.783216 14.8224 0.783216 14.5058 0.978478 14.3105L2.97848 12.3105C3.17374 12.1152 3.49032 12.1152 3.68558 12.3105Z" fill="black"/>
<path fill-rule="evenodd" clip-rule="evenodd" d="M4.00002 7.5C4.13263 7.5 4.25981 7.55268 4.35358 7.64645L8.35358 11.6464C8.44734 11.7402 8.50002 11.8674 8.50002 12C8.50002 12.1326 8.44734 12.2598 8.35358 12.3536L6.82086 13.8863C6.82071 13.8864 6.82101 13.8861 6.82086 13.8863C6.62585 14.0818 6.39374 14.2375 6.13867 14.3434C5.88342 14.4494 5.60975 14.5039 5.33336 14.5039C5.05697 14.5039 4.7833 14.4494 4.52804 14.3434C4.27294 14.2375 4.04124 14.0822 3.84622 13.8866C3.8461 13.8865 3.84635 13.8868 3.84622 13.8866L2.11375 12.1542C2.11365 12.1541 2.11385 12.1543 2.11375 12.1542C1.91812 11.9591 1.76258 11.7271 1.65665 11.472C1.55065 11.2167 1.49609 10.9431 1.49609 10.6667C1.49609 10.3903 1.55065 10.1166 1.65665 9.86135C1.76258 9.60623 1.91781 9.37451 2.11344 9.17948C2.11333 9.17958 2.11354 9.17938 2.11344 9.17948L3.64647 7.64645C3.74024 7.55268 3.86741 7.5 4.00002 7.5ZM4.00002 8.70711L2.82024 9.88689C2.71769 9.98908 2.63571 10.1111 2.58019 10.2448C2.52467 10.3785 2.49609 10.5219 2.49609 10.6667C2.49609 10.8114 2.52467 10.9548 2.58019 11.0885C2.63571 11.2222 2.71708 11.3436 2.81963 11.4458L4.55358 13.1798C4.65577 13.2823 4.77782 13.3643 4.91152 13.4198C5.04523 13.4753 5.18858 13.5039 5.33336 13.5039C5.47813 13.5039 5.62148 13.4753 5.75519 13.4198C5.8889 13.3643 6.01033 13.2829 6.11252 13.1804L7.29292 12L4.00002 8.70711Z" fill="black"/>
<path fill-rule="evenodd" clip-rule="evenodd" d="M7.02022 6.98238C7.21548 7.17765 7.21548 7.49423 7.02022 7.68949L5.35355 9.35616C5.15829 9.55142 4.84171 9.55142 4.64645 9.35616C4.45118 9.1609 4.45118 8.84431 4.64645 8.64905L6.31311 6.98238C6.50838 6.78712 6.82496 6.78712 7.02022 6.98238Z" fill="black"/>
<path fill-rule="evenodd" clip-rule="evenodd" d="M9.02022 8.98238C9.21548 9.17765 9.21548 9.49423 9.02022 9.68949L7.35355 11.3562C7.15829 11.5514 6.84171 11.5514 6.64645 11.3562C6.45118 11.1609 6.45118 10.8443 6.64645 10.6491L8.31311 8.98238C8.50838 8.78712 8.82496 8.78712 9.02022 8.98238Z" fill="black"/>
<path fill-rule="evenodd" clip-rule="evenodd" d="M9.86135 1.65274C10.1166 1.54675 10.3903 1.49219 10.6667 1.49219C10.9431 1.49219 11.2167 1.54675 11.472 1.65274C11.7271 1.75867 11.9588 1.9139 12.1539 2.10953C12.1538 2.10943 12.154 2.10964 12.1539 2.10953L13.8863 3.84195C13.8861 3.84183 13.8864 3.84207 13.8863 3.84195C14.0819 4.03697 14.2375 4.26903 14.3434 4.52413C14.4494 4.77939 14.5039 5.05306 14.5039 5.32945C14.5039 5.60584 14.4494 5.87951 14.3434 6.13477C14.2375 6.38983 14.0823 6.6215 13.8867 6.8165C13.8866 6.81665 13.8869 6.81635 13.8867 6.8165L12.3536 8.34967C12.2598 8.44344 12.1326 8.49612 12 8.49612C11.8674 8.49612 11.7402 8.44344 11.6464 8.34967L7.64645 4.34967C7.55268 4.2559 7.5 4.12872 7.5 3.99612C7.5 3.86351 7.55268 3.73633 7.64645 3.64256L9.17917 2.10984C9.17906 2.10995 9.17927 2.10974 9.17917 2.10984C9.3742 1.91422 9.60623 1.75867 9.86135 1.65274ZM10.6667 2.49219C10.5219 2.49219 10.3785 2.52077 10.2448 2.57629C10.1111 2.63181 9.98969 2.71317 9.8875 2.81572L8.70711 3.99612L12 7.28901L13.1798 6.10923C13.2823 6.00704 13.3643 5.88499 13.4198 5.75128C13.4753 5.61758 13.5039 5.47423 13.5039 5.32945C13.5039 5.18467 13.4753 5.04132 13.4198 4.90762C13.3643 4.77391 13.2829 4.65248 13.1804 4.55028L11.4464 2.81634C11.3443 2.71379 11.2222 2.63181 11.0885 2.57629C10.9548 2.52077 10.8114 2.49219 10.6667 2.49219Z" fill="black"/>
</g>
<defs>
<clipPath id="clip0_5235_69212">
<rect width="16" height="16" fill="white"/>
</clipPath>
</defs>
</svg>
