<svg width="16" height="16" viewBox="0 0 16 16" fill="none" xmlns="http://www.w3.org/2000/svg">
<path fill-rule="evenodd" clip-rule="evenodd" d="M4.40796 6.57135C4.56632 6.47625 4.76422 6.47622 4.92261 6.57125L8.25595 8.57125C8.40655 8.66162 8.4987 8.82437 8.4987 9V12.6667C8.4987 12.8424 8.40648 13.0052 8.25579 13.0955L5.60953 14.6819C5.32439 14.8532 4.99801 14.9437 4.66536 14.9437C4.33272 14.9437 4.00634 14.8532 3.7212 14.6819L1.72145 13.4821C1.45081 13.3195 1.2265 13.0896 1.07072 12.815C0.914942 12.5404 0.832724 12.2302 0.832032 11.9144L0.832031 11.9133V9.75333L0.832032 9.75224C0.832724 9.43651 0.914942 9.12631 1.07072 8.85169C1.2265 8.57707 1.45056 8.34734 1.7212 8.18474L4.40796 6.57135ZM4.66547 7.58316L2.2362 9.04193C2.23617 9.04195 2.23623 9.04191 2.2362 9.04193C2.11322 9.11583 2.01132 9.2203 1.94052 9.34509C1.8698 9.46978 1.83243 9.6106 1.83203 9.75395V11.9127C1.83243 12.0561 1.8698 12.1969 1.94052 12.3216C2.01132 12.4464 2.11313 12.5508 2.2361 12.6247C2.23607 12.6247 2.23613 12.6247 2.2361 12.6247L4.23595 13.8246C4.36556 13.9025 4.51416 13.9437 4.66536 13.9437C4.81657 13.9437 4.96492 13.9026 5.09453 13.8247L7.4987 12.3834V9.2831L4.66547 7.58316Z" fill="black"/>
<path fill-rule="evenodd" clip-rule="evenodd" d="M1.07938 8.84399C1.22167 8.60733 1.52888 8.53084 1.76553 8.67313L4.92553 10.5731C5.16219 10.7154 5.23869 11.0226 5.09639 11.2593C4.9541 11.4959 4.6469 11.5724 4.41024 11.4301L1.25024 9.53014C1.01358 9.38785 0.937086 9.08065 1.07938 8.84399Z" fill="black"/>
<path fill-rule="evenodd" clip-rule="evenodd" d="M8.43012 8.74283C8.5722 8.97962 8.49542 9.28675 8.25863 9.42882L4.92529 11.4288C4.6885 11.5709 4.38137 11.4941 4.2393 11.2573C4.09722 11.0205 4.17401 10.7134 4.4108 10.5713L7.74413 8.57133C7.98092 8.42926 8.28805 8.50604 8.43012 8.74283Z" fill="black"/>
<path fill-rule="evenodd" clip-rule="evenodd" d="M4.66797 10.5C4.94411 10.5 5.16797 10.7239 5.16797 11V14.4467C5.16797 14.7228 4.94411 14.9467 4.66797 14.9467C4.39183 14.9467 4.16797 14.7228 4.16797 14.4467V11C4.16797 10.7239 4.39183 10.5 4.66797 10.5Z" fill="black"/>
<path fill-rule="evenodd" clip-rule="evenodd" d="M11.0761 6.57125C11.2345 6.47622 11.4324 6.47625 11.5907 6.57135L14.2774 8.18468C14.548 8.34728 14.7722 8.57707 14.928 8.85169C15.0838 9.12631 15.166 9.43651 15.1667 9.75224L15.1667 9.75333L15.1667 11.9133L15.1667 11.9144C15.166 12.2302 15.0838 12.5404 14.928 12.815C14.7722 13.0896 14.5481 13.3193 14.2775 13.4819L12.2775 14.6819C11.9924 14.8532 11.666 14.9437 11.3333 14.9437C11.0007 14.9437 10.6743 14.8532 10.3892 14.6819L7.74291 13.0955C7.59222 13.0052 7.5 12.8424 7.5 12.6667V9C7.5 8.82437 7.59215 8.66162 7.74275 8.57125L11.0761 6.57125ZM8.5 9.2831V12.3834L10.9038 13.8245C11.0334 13.9024 11.1821 13.9437 11.3333 13.9437C11.4845 13.9437 11.6329 13.9026 11.7625 13.8247L13.7625 12.6247C13.8855 12.5508 13.9874 12.4464 14.0582 12.3216C14.1289 12.1969 14.1663 12.056 14.1667 11.9126V9.75404C14.1663 9.61066 14.1289 9.4698 14.0582 9.34509C13.9874 9.22026 13.8855 9.11584 13.7625 9.04193L11.3332 7.58316L8.5 9.2831Z" fill="black"/>
<path fill-rule="evenodd" clip-rule="evenodd" d="M7.57133 8.74283C7.7134 8.50604 8.02053 8.42926 8.25732 8.57133L11.5907 10.5713C11.8274 10.7134 11.9042 11.0205 11.7622 11.2573C11.6201 11.4941 11.313 11.5709 11.0762 11.4288L7.74283 9.42882C7.50604 9.28675 7.42926 8.97962 7.57133 8.74283Z" fill="black"/>
<path fill-rule="evenodd" clip-rule="evenodd" d="M14.9206 8.84399C15.0629 9.08065 14.9864 9.38785 14.7498 9.53014L11.5898 11.4301C11.3531 11.5724 11.0459 11.4959 10.9036 11.2593C10.7613 11.0226 10.8378 10.7154 11.0745 10.5731L14.2345 8.67313C14.4711 8.53084 14.7783 8.60733 14.9206 8.84399Z" fill="black"/>
<path fill-rule="evenodd" clip-rule="evenodd" d="M11.332 10.5C11.6082 10.5 11.832 10.7239 11.832 11V14.4467C11.832 14.7228 11.6082 14.9467 11.332 14.9467C11.0559 14.9467 10.832 14.7228 10.832 14.4467V11C10.832 10.7239 11.0559 10.5 11.332 10.5Z" fill="black"/>
<path fill-rule="evenodd" clip-rule="evenodd" d="M7.05714 1.31651C7.34228 1.14519 7.66866 1.05469 8.0013 1.05469C8.33385 1.05469 8.66013 1.14514 8.94522 1.31635L10.9452 2.51635C11.2159 2.67895 11.4402 2.90884 11.5959 3.18346C11.7517 3.45808 11.8339 3.76828 11.8346 4.084L11.8346 4.0851L11.8346 6.99843C11.8346 7.17407 11.7425 7.33682 11.5919 7.42718L8.25855 9.42718C8.10021 9.52219 7.9024 9.52219 7.74405 9.42718L4.41072 7.42718C4.26012 7.33682 4.16797 7.17407 4.16797 6.99843V4.0851L4.16797 4.084C4.16866 3.76828 4.25088 3.45808 4.40666 3.18346C4.56244 2.90884 4.7865 2.6791 5.05714 2.5165L7.05714 1.31651ZM8.0013 2.05469C7.8501 2.05469 7.70175 2.09583 7.57214 2.1737L5.57213 3.3737C5.57209 3.37372 5.57218 3.37367 5.57213 3.3737C5.44917 3.4476 5.34725 3.55207 5.27646 3.67686C5.20573 3.80155 5.16837 3.94237 5.16797 4.08572V6.71534L8.0013 8.41534L10.8346 6.71534V4.0858C10.8343 3.94243 10.7969 3.80157 10.7261 3.67686C10.6553 3.55203 10.5535 3.4476 10.4305 3.3737L8.43072 2.17385C8.30111 2.09598 8.15251 2.05469 8.0013 2.05469Z" fill="black"/>
<path fill-rule="evenodd" clip-rule="evenodd" d="M4.41141 3.17212C4.55371 2.93546 4.86091 2.85896 5.09757 3.00126L8.25757 4.90126C8.49422 5.04355 8.57072 5.35075 8.42843 5.58741C8.28613 5.82407 7.97893 5.90056 7.74227 5.75827L4.58227 3.85827C4.34561 3.71598 4.26912 3.40877 4.41141 3.17212Z" fill="black"/>
<path fill-rule="evenodd" clip-rule="evenodd" d="M11.5886 3.17212C11.7309 3.40877 11.6544 3.71598 11.4177 3.85827L8.25772 5.75827C8.02106 5.90056 7.71386 5.82407 7.57157 5.58741C7.42927 5.35075 7.50577 5.04355 7.74243 4.90126L10.9024 3.00126C11.1391 2.85896 11.4463 2.93546 11.5886 3.17212Z" fill="black"/>
<path fill-rule="evenodd" clip-rule="evenodd" d="M8 4.83594C8.27614 4.83594 8.5 5.0598 8.5 5.33594V9.0026C8.5 9.27875 8.27614 9.5026 8 9.5026C7.72386 9.5026 7.5 9.27875 7.5 9.0026V5.33594C7.5 5.0598 7.72386 4.83594 8 4.83594Z" fill="black"/>
</svg>
