<svg width="16" height="16" viewBox="0 0 16 16" fill="none" xmlns="http://www.w3.org/2000/svg">
<path d="M13.581 3.7464L8.91699 1.08087C8.35205 0.754702 7.64892 0.754212 7.08545 1.07989L2.4165 3.74787C1.85205 4.07404 1.50049 4.68195 1.5 5.3338V10.6688C1.50049 11.3201 1.85205 11.9276 2.41895 12.2557L7.0835 14.9197C7.3537 15.0762 7.65497 15.1522 7.95765 15.1592C7.97236 15.1605 7.98499 15.1678 8.00001 15.1678C8.01374 15.1678 8.02528 15.1611 8.03877 15.16C8.34242 15.1537 8.64509 15.0773 8.91505 14.9217L13.583 12.2537C14.1484 11.9266 14.5 11.3191 14.5 10.6678V5.33379C14.5 4.68242 14.1484 4.07452 13.581 3.7464ZM7.5835 1.94709C7.71192 1.87287 7.85547 1.83576 7.99952 1.83576C8.14405 1.83576 8.28907 1.87336 8.41895 1.94806L12.9866 4.55798L8.00001 7.42413L3.01373 4.55817L7.5835 1.94709ZM2.91748 11.3885C2.66016 11.2401 2.50049 10.9637 2.5 10.6678V5.41633L7.5 8.29017V14.006L2.91748 11.3885ZM13.085 11.3865L8.5 14.0071V8.29016L13.5 5.41632V10.6678C13.5 10.9637 13.3398 11.2391 13.085 11.3865Z" fill="black"/>
</svg>
