<svg width="18" height="18" viewBox="0 0 18 18" fill="none" xmlns="http://www.w3.org/2000/svg">
<path fill-rule="evenodd" clip-rule="evenodd" d="M3.66667 6.83594C3.57462 6.83594 3.5 6.91056 3.5 7.0026V13.6693C3.5 13.7613 3.57462 13.8359 3.66667 13.8359H14.3333C14.4254 13.8359 14.5 13.7613 14.5 13.6693V7.0026C14.5 6.91056 14.4254 6.83594 14.3333 6.83594H3.66667ZM2.5 7.0026C2.5 6.35827 3.02233 5.83594 3.66667 5.83594H14.3333C14.9777 5.83594 15.5 6.35827 15.5 7.0026V13.6693C15.5 14.3136 14.9777 14.8359 14.3333 14.8359H3.66667C3.02233 14.8359 2.5 14.3136 2.5 13.6693V7.0026Z" fill="black"/>
<path fill-rule="evenodd" clip-rule="evenodd" d="M4.17374 3.50577C4.39253 3.28698 4.68928 3.16406 4.9987 3.16406H6.9987C7.31232 3.16406 7.61253 3.27079 7.83558 3.49384C8.05864 3.7169 8.16536 4.01711 8.16536 4.33073V6.33073C8.16536 6.60687 7.94151 6.83073 7.66536 6.83073C7.38922 6.83073 7.16536 6.60687 7.16536 6.33073V4.33073C7.16536 4.24435 7.13876 4.21123 7.12848 4.20095C7.1182 4.19067 7.08507 4.16406 6.9987 4.16406H4.9987C4.9545 4.16406 4.9121 4.18162 4.88085 4.21288C4.84959 4.24413 4.83203 4.28653 4.83203 4.33073V6.33073C4.83203 6.60687 4.60817 6.83073 4.33203 6.83073C4.05589 6.83073 3.83203 6.60687 3.83203 6.33073V4.33073C3.83203 4.02131 3.95495 3.72456 4.17374 3.50577Z" fill="black"/>
<path fill-rule="evenodd" clip-rule="evenodd" d="M10.1737 3.50577C10.3925 3.28698 10.6893 3.16406 10.9987 3.16406H12.9987C13.3123 3.16406 13.6125 3.27079 13.8356 3.49384C14.0586 3.7169 14.1654 4.01711 14.1654 4.33073V6.33073C14.1654 6.60687 13.9415 6.83073 13.6654 6.83073C13.3892 6.83073 13.1654 6.60687 13.1654 6.33073V4.33073C13.1654 4.24435 13.1388 4.21123 13.1285 4.20095C13.1182 4.19067 13.0851 4.16406 12.9987 4.16406H10.9987C10.9545 4.16406 10.9121 4.18162 10.8808 4.21288C10.8496 4.24413 10.832 4.28653 10.832 4.33073V6.33073C10.832 6.60687 10.6082 6.83073 10.332 6.83073C10.0559 6.83073 9.83203 6.60687 9.83203 6.33073V4.33073C9.83203 4.02131 9.95495 3.72456 10.1737 3.50577Z" fill="black"/>
</svg>
