<svg width="16" height="16" viewBox="0 0 16 16" fill="none" xmlns="http://www.w3.org/2000/svg">
<path d="M8.14695 15.1699H7.85398C6.84226 15.1699 6.02 14.3476 6.02 13.3359V13.2158C6.02 12.9199 5.86082 12.6435 5.60398 12.4951L5.31687 12.3291C5.05808 12.1806 4.7407 12.1806 4.48386 12.3291L4.3657 12.3916C3.95945 12.626 3.46726 12.6904 2.99363 12.5664C2.52097 12.4394 2.12644 12.1367 1.88133 11.7129L1.73485 11.4619C1.22899 10.5849 1.52977 9.46189 2.4038 8.95701L2.49364 8.90135C2.76219 8.74705 2.92137 8.46971 2.9204 8.17186V7.82909C2.91845 7.53807 2.75829 7.26366 2.50341 7.11522L2.37646 7.03221C1.53076 6.54295 1.22998 5.41991 1.73291 4.54686L1.88232 4.291C2.12646 3.86912 2.52099 3.56639 2.99365 3.43944C3.46435 3.31444 3.95947 3.37889 4.3833 3.62401L4.46631 3.66698C4.7417 3.82616 5.06006 3.82616 5.3169 3.67675L5.60303 3.50976C5.86084 3.36132 6.02002 3.08593 6.02002 2.78906V2.66992C6.02002 1.6582 6.84229 0.835938 7.854 0.835938H8.14697C9.15771 0.835938 9.97998 1.65821 9.97998 2.66992V2.78906C9.98096 3.08496 10.1401 3.36133 10.396 3.50879L10.6851 3.67676C10.9409 3.8252 11.2593 3.8252 11.5171 3.67676L11.6323 3.61524C12.4897 3.11817 13.6138 3.41895 14.1196 4.292L14.2661 4.54493C14.77 5.41993 14.4702 6.542 13.5981 7.04884L13.5015 7.10646C13.2388 7.25783 13.0796 7.53517 13.0806 7.834V8.16994C13.0796 8.47072 13.2388 8.74806 13.4956 8.89553L13.5825 8.94143C14.4702 9.4551 14.77 10.5782 14.2671 11.4522L14.1225 11.708C13.6128 12.5869 12.4897 12.8867 11.6167 12.3819L11.5327 12.3389C11.2593 12.1807 10.9419 12.1807 10.6841 12.3291L10.397 12.4951C10.1401 12.6436 9.98094 12.9199 9.97997 13.2168V13.336C9.97997 14.3477 9.15769 15.1699 8.14695 15.1699ZM4.89499 11.2168C5.21237 11.2168 5.53171 11.2988 5.81687 11.4639L6.10398 11.6299C6.66941 11.956 7.02 12.5644 7.02 13.2158V13.3359C7.02 13.7959 7.39402 14.1699 7.85398 14.1699H8.14695C8.60593 14.1699 8.97996 13.7959 8.97996 13.3359V13.2158C8.98094 12.5635 9.3325 11.956 9.89695 11.6299L10.1841 11.4639C10.7495 11.1377 11.4516 11.1377 12.0171 11.4629L12.1011 11.5078C12.5112 11.7431 13.0239 11.6103 13.2544 11.2119L13.3979 10.958C13.6294 10.5556 13.4927 10.0449 13.0962 9.8154L13.0112 9.77048C12.4292 9.43552 12.0776 8.82419 12.0805 8.16794V7.83591C12.0776 7.18161 12.4292 6.57126 12.9966 6.24314L13.0923 6.18552C13.4927 5.9531 13.6294 5.44236 13.3999 5.0449L13.2544 4.79392C13.0239 4.39548 12.5141 4.26072 12.1167 4.48923L12.0014 4.55173C11.4507 4.86814 10.7485 4.87009 10.1841 4.54196L9.89597 4.37497C9.33249 4.05075 8.98093 3.44333 8.97995 2.79001V2.66989C8.97995 2.20993 8.60593 1.83591 8.14694 1.83591H7.85397C7.39401 1.83591 7.01999 2.20993 7.01999 2.66989V2.78903C7.01999 3.44235 6.66843 4.04977 6.103 4.37594L5.81784 4.54196C5.25143 4.86716 4.54831 4.87008 3.98386 4.54196L3.90085 4.49899C3.48483 4.25973 2.97507 4.39645 2.74655 4.79294L2.59811 5.04782C2.37057 5.44333 2.50729 5.95309 2.90475 6.18356L3.03073 6.26657C3.56491 6.57419 3.91647 7.17868 3.92038 7.82614V8.16989C3.92331 8.82419 3.57175 9.43551 3.00241 9.76266L2.91354 9.81735C2.50729 10.0517 2.37057 10.5625 2.60006 10.9609L2.74557 11.2109C2.97702 11.6103 3.48678 11.7431 3.88327 11.5166L4.00143 11.4541C4.27291 11.2968 4.58347 11.2168 4.89499 11.2168Z" fill="black"/>
<path d="M8 10.5C6.62109 10.5 5.5 9.37891 5.5 8C5.5 6.62109 6.62109 5.5 8 5.5C9.37891 5.5 10.5 6.62109 10.5 8C10.5 9.37891 9.37891 10.5 8 10.5ZM8 6.5C7.17285 6.5 6.5 7.17285 6.5 8C6.5 8.82715 7.17285 9.5 8 9.5C8.82715 9.5 9.5 8.82715 9.5 8C9.5 7.17285 8.82715 6.5 8 6.5Z" fill="black"/>
</svg>
