<svg width="16" height="16" viewBox="0 0 16 16" fill="none" xmlns="http://www.w3.org/2000/svg">
<path fill-rule="evenodd" clip-rule="evenodd" d="M4.17615 2.73882C5.42823 1.82651 6.96499 1.39139 8.50949 1.51189C10.054 1.63238 11.5047 2.30055 12.6001 3.396C13.6956 4.49145 14.3638 5.94214 14.4843 7.48665C14.6047 9.03115 14.1696 10.5679 13.2573 11.82C12.345 13.0721 11.0155 13.9571 9.50836 14.3157C8.07109 14.6576 6.56242 14.4993 5.23016 13.8706L1.49256 15.1376C1.31234 15.1987 1.11305 15.1522 0.978492 15.0176C0.843929 14.8831 0.797418 14.6838 0.858512 14.5036L2.12549 10.766C1.49683 9.43372 1.3385 7.92505 1.68044 6.48778C2.039 4.98064 2.92406 3.65113 4.17615 2.73882ZM8.43172 2.50886C7.12483 2.4069 5.82449 2.77508 4.76504 3.54703C3.70558 4.31899 2.95668 5.44396 2.65328 6.71923C2.34989 7.99449 2.51195 9.33619 3.11026 10.5025C3.172 10.6229 3.18234 10.7632 3.13891 10.8913L2.13073 13.8654L5.10486 12.8572C5.23298 12.8138 5.37323 12.8241 5.49359 12.8859C6.65995 13.4842 8.00164 13.6463 9.27691 13.3429C10.5522 13.0395 11.6772 12.2906 12.4491 11.2311C13.2211 10.1716 13.5892 8.87131 13.4873 7.56442C13.3853 6.25753 12.8199 5.03003 11.893 4.10311C10.9661 3.17619 9.73861 2.61081 8.43172 2.50886Z" fill="black"/>
<path fill-rule="evenodd" clip-rule="evenodd" d="M8.19899 5.18566C7.84985 5.12577 7.49078 5.19138 7.18537 5.37087C6.87997 5.55036 6.64795 5.83214 6.5304 6.1663C6.43876 6.4268 6.1533 6.56368 5.89281 6.47205C5.63231 6.38041 5.49543 6.09495 5.58706 5.83446C5.78298 5.27752 6.16969 4.80788 6.67869 4.50874C7.18769 4.20959 7.78614 4.10024 8.36804 4.20005C8.94994 4.29986 9.47774 4.6024 9.85796 5.05407C10.2381 5.50566 10.4462 6.0772 10.4454 6.6675C10.4452 7.59935 9.75286 8.22966 9.22275 8.58307C8.94243 8.76995 8.66567 8.90797 8.46097 8.99895C8.3579 9.04476 8.27132 9.07943 8.20933 9.10304C8.1783 9.11486 8.15331 9.12396 8.13536 9.13034L8.11382 9.13789L8.10721 9.14014L8.10499 9.14089L8.10381 9.14129C8.10366 9.14134 8.10351 9.14139 7.9454 8.66705L8.10381 9.14129C7.84184 9.22861 7.55838 9.08713 7.47106 8.82516C7.38382 8.56346 7.52502 8.28061 7.78648 8.19297L7.78845 8.1923L7.80035 8.18813C7.81171 8.18409 7.82968 8.17756 7.85334 8.16855C7.90072 8.1505 7.97039 8.12267 8.05483 8.08514C8.22512 8.00946 8.44836 7.89748 8.66805 7.75102C9.13785 7.43782 9.4454 7.06828 9.4454 6.66705C9.44592 6.31281 9.32107 5.96907 9.09294 5.69807C8.86481 5.42706 8.54813 5.24555 8.19899 5.18566Z" fill="black"/>
<path fill-rule="evenodd" clip-rule="evenodd" d="M7.5 11.3359C7.5 11.0598 7.72386 10.8359 8 10.8359H8.00667C8.28281 10.8359 8.50667 11.0598 8.50667 11.3359C8.50667 11.6121 8.28281 11.8359 8.00667 11.8359H8C7.72386 11.8359 7.5 11.6121 7.5 11.3359Z" fill="black"/>
</svg>
