<svg width="16" height="16" viewBox="0 0 16 16" fill="none" xmlns="http://www.w3.org/2000/svg">
<path fill-rule="evenodd" clip-rule="evenodd" d="M4.31442 4.31051C4.50968 4.11525 4.82626 4.11525 5.02152 4.31051L6.35486 5.64384C6.55012 5.8391 6.55012 6.15569 6.35486 6.35095L5.02152 7.68428C4.82626 7.87954 4.50968 7.87954 4.31442 7.68428C4.11915 7.48902 4.11915 7.17244 4.31442 6.97718L5.2942 5.9974L4.31442 5.01762C4.11915 4.82235 4.11915 4.50577 4.31442 4.31051Z" fill="black"/>
<path fill-rule="evenodd" clip-rule="evenodd" d="M6.83203 8.66406C6.83203 8.38792 7.05589 8.16406 7.33203 8.16406H9.9987C10.2748 8.16406 10.4987 8.38792 10.4987 8.66406C10.4987 8.9402 10.2748 9.16406 9.9987 9.16406H7.33203C7.05589 9.16406 6.83203 8.9402 6.83203 8.66406Z" fill="black"/>
<path fill-rule="evenodd" clip-rule="evenodd" d="M3.33333 2.5C2.8731 2.5 2.5 2.8731 2.5 3.33333V12.6667C2.5 13.1269 2.8731 13.5 3.33333 13.5H12.6667C13.1269 13.5 13.5 13.1269 13.5 12.6667V3.33333C13.5 2.8731 13.1269 2.5 12.6667 2.5H3.33333ZM1.5 3.33333C1.5 2.32081 2.32081 1.5 3.33333 1.5H12.6667C13.6792 1.5 14.5 2.32081 14.5 3.33333V12.6667C14.5 13.6792 13.6792 14.5 12.6667 14.5H3.33333C2.32081 14.5 1.5 13.6792 1.5 12.6667V3.33333Z" fill="black"/>
</svg>
